<svg version="1.1" id="Layer_1" xmlns="http://www.w3.org/2000/svg" xmlns:xlink="http://www.w3.org/1999/xlink" x="0px" y="0px"
	 width="100%" viewBox="0 0 1536 1024" enable-background="new 0 0 1536 1024" xml:space="preserve">
<path fill="#FEFEFE" opacity="1.000000" stroke="none" 
	d="
M964.000000,1025.000000 
	C642.666687,1025.000000 321.833344,1025.000000 1.000000,1025.000000 
	C1.000000,683.666687 1.000000,342.333344 1.000000,1.000000 
	C513.000000,1.000000 1025.000000,1.000000 1537.000000,1.000000 
	C1537.000000,342.333344 1537.000000,683.666687 1537.000000,1025.000000 
	C1346.166626,1025.000000 1155.333374,1025.000000 964.000000,1025.000000 
M430.204620,487.709564 
	C430.204620,487.709564 430.289551,487.442627 430.289551,487.442627 
	C430.289551,487.442627 430.010742,487.411713 430.478912,486.655212 
	C430.752167,484.934662 431.025421,483.214111 431.898560,481.063538 
	C434.741974,463.382233 438.786835,445.790527 440.113434,427.996124 
	C441.644165,407.464386 440.726593,386.753143 441.001862,366.121582 
	C441.046570,362.770569 439.899872,361.583130 436.516052,361.133148 
	C400.161377,356.298889 365.401398,345.800964 331.755310,331.365326 
	C326.215637,328.988586 320.447540,327.144379 314.058655,324.725800 
	C312.823029,325.147064 311.540436,325.465363 310.358673,326.004639 
	C280.282501,339.729736 249.313248,350.820892 216.862366,357.452759 
	C207.764191,359.312073 198.568161,360.692596 189.385178,362.298340 
	C189.261429,363.245422 189.106964,363.894379 189.101639,364.544617 
	C188.802765,401.092743 190.410599,437.457245 199.181076,473.172668 
	C206.097275,501.337036 217.486053,527.353027 235.677811,550.153442 
	C256.639160,576.425171 283.509399,594.685913 314.109100,607.850952 
	C315.558502,608.474609 317.245300,608.546692 319.615631,608.873535 
	C322.835602,607.560547 326.108704,606.363586 329.267517,604.916992 
	C369.076599,586.684509 399.828033,558.927185 418.472626,518.870911 
	C422.853516,509.458954 425.640839,499.305206 429.647980,489.123810 
	C429.707397,488.741119 429.766815,488.358429 430.026794,487.875427 
	C430.026794,487.875427 429.923248,487.676544 430.204620,487.709564 
M924.092590,470.141205 
	C924.092590,470.141205 924.172791,470.263916 924.637817,470.192963 
	C924.637817,470.192963 924.960632,469.850800 925.609253,469.766663 
	C932.603271,460.764801 935.211670,450.192780 936.592041,439.171936 
	C939.739990,414.038452 927.153992,394.322449 903.230774,386.170959 
	C883.920593,379.591339 864.012329,382.065918 844.289795,381.687531 
	C843.324158,381.669037 841.585022,383.603485 841.445618,384.775879 
	C839.971558,397.170929 838.749451,409.595947 837.065674,422.792847 
	C834.321106,447.361664 831.576477,471.930481 828.718811,497.511597 
	C833.352722,497.511597 837.277344,497.511597 841.358032,497.709381 
	C841.358032,497.709381 841.609680,497.723663 841.609680,497.723663 
	C841.609680,497.723663 841.776062,497.533173 842.710205,497.616180 
	C844.902954,497.627106 847.095764,497.638031 850.128845,497.903259 
	C857.864807,497.681213 865.600830,497.459167 874.325500,497.161377 
	C885.916077,497.010864 896.963623,494.032867 906.510437,487.826477 
	C912.776733,483.752777 917.533630,477.357208 923.192322,471.771240 
	C923.192322,471.771240 923.115967,471.457916 923.694458,471.195129 
	C923.873962,470.829651 924.053467,470.464203 924.092590,470.141205 
M540.432922,596.140137 
	C540.058228,596.761353 539.683533,597.382568 538.751160,598.431580 
	C536.886597,600.838379 535.022095,603.245178 532.786072,606.131470 
	C531.200989,602.613831 529.614258,599.730957 528.589355,596.660583 
	C527.234924,592.602844 524.795227,591.820679 520.563904,593.292664 
	C525.035339,603.318909 532.596619,612.430298 526.630005,624.496521 
	C529.578308,624.496521 531.155762,624.496521 532.733215,624.496521 
	C532.321899,624.254211 531.910522,624.011963 531.499146,623.769653 
	C534.669922,616.530579 537.840759,609.291443 541.283386,601.681885 
	C541.459839,601.431213 541.657349,601.198242 542.529114,600.892212 
	C543.124878,599.981018 543.720642,599.069824 544.858643,597.846252 
	C546.003845,596.363159 547.149048,594.880005 549.219971,592.198059 
	C545.332275,593.291138 541.723511,591.012451 540.996948,595.987671 
	C540.996948,595.987671 540.950928,595.919678 540.432922,596.140137 
M1022.753967,603.483521 
	C1023.975037,605.848389 1025.924683,608.123108 1026.231201,610.601135 
	C1026.606934,613.639404 1025.594604,616.846008 1025.218506,619.984192 
	C1025.160522,620.468628 1025.215332,620.999756 1025.353882,621.469299 
	C1026.566650,625.580750 1029.958252,625.435303 1033.078369,624.961609 
	C1034.537964,624.739990 1035.799438,623.215027 1037.150757,622.280823 
	C1037.086548,621.757812 1037.022339,621.234802 1036.958130,620.711792 
	C1030.733154,621.584167 1030.431519,618.389587 1031.411621,614.125916 
	C1031.927002,611.883606 1032.115601,609.566223 1032.386963,607.722534 
	C1034.595337,605.741272 1040.153931,608.526245 1038.375732,602.536377 
	C1036.656128,602.307312 1035.044067,602.092529 1033.454834,601.880859 
	C1033.454834,599.748596 1033.454834,597.835938 1033.454834,594.839355 
	C1031.384766,595.968079 1028.751709,596.732239 1028.745483,597.516968 
	C1028.707642,602.341553 1024.979126,602.180969 1021.524536,602.426453 
	C1018.330383,601.559021 1016.276855,602.362854 1014.984863,605.770813 
	C1013.528503,609.612854 1011.396301,613.198792 1009.173462,617.669495 
	C1007.890686,613.337952 1006.571960,609.777893 1005.818420,606.102051 
	C1004.979736,602.010681 1002.834106,601.580627 999.102722,603.029053 
	C1000.812134,608.751160 1002.139893,614.409302 1004.219360,619.776306 
	C1005.910156,624.140320 1004.167236,626.722778 1001.014771,629.092346 
	C1000.362183,629.582764 999.331665,629.746887 998.931152,630.359436 
	C998.096191,631.635986 997.565796,633.111694 996.910217,634.505615 
	C998.388367,634.562500 1000.273926,635.225037 1001.265198,634.558228 
	C1003.842773,632.824036 1006.722168,630.916260 1008.240784,628.345215 
	C1013.114319,620.094116 1017.426819,611.511719 1022.753967,603.483521 
M471.663391,400.841003 
	C472.107544,400.778473 472.551727,400.715942 473.917725,400.836243 
	C482.264587,400.820648 490.611420,400.805054 499.747467,401.004883 
	C500.116608,402.423584 500.923828,403.885590 500.788422,405.254364 
	C499.069763,422.627228 497.224152,439.987549 495.393372,457.349213 
	C494.000183,470.561157 492.582092,483.770477 491.128235,497.420837 
	C499.890381,497.420837 508.233521,497.420837 516.612976,497.420837 
	C520.055420,465.041138 523.457214,433.043610 526.897705,400.682007 
	C530.715210,400.682007 533.857544,400.682007 537.919189,400.865417 
	C545.013489,400.865417 552.107788,400.865417 559.242493,400.865417 
	C560.024658,394.301239 560.747742,388.232941 561.481812,382.072357 
	C530.807129,382.072357 500.943970,382.072357 471.000000,382.072357 
	C470.290131,387.453186 469.496521,392.530060 469.057404,397.637451 
	C468.975647,398.588440 470.318573,399.661865 471.663391,400.841003 
M692.232788,430.043030 
	C692.595093,426.157715 692.957397,422.272400 693.314514,418.442444 
	C685.049438,418.442444 677.604858,418.442444 670.039062,418.442444 
	C669.887146,419.324677 669.743530,419.958191 669.672485,420.599762 
	C668.153381,434.321503 667.045898,448.105316 664.978760,461.743744 
	C663.735168,469.948578 659.207031,476.660675 651.159851,480.065735 
	C643.070374,483.488617 636.506775,479.065887 636.855530,470.389221 
	C637.102417,464.246155 637.851685,458.118988 638.494080,451.997040 
	C639.653320,440.949402 640.900574,429.910980 642.154480,418.473053 
	C633.904968,418.473053 626.202454,418.473053 618.501038,418.473053 
	C616.427734,437.300232 614.055481,455.768219 612.453430,474.302765 
	C611.010193,490.999969 621.863770,501.137939 638.588989,499.562988 
	C645.793762,498.884552 652.030273,496.007782 657.303040,491.075745 
	C659.416199,489.099121 661.424133,487.009949 664.120972,484.336639 
	C664.120972,489.285828 664.120972,493.372345 664.120972,497.606628 
	C671.313965,497.606628 678.075623,497.606628 684.962524,497.606628 
	C687.372437,475.207825 689.754089,453.071899 692.232788,430.043030 
M1137.071411,473.583405 
	C1139.046997,486.092926 1146.449829,493.898560 1158.316162,497.515137 
	C1172.849609,501.944672 1186.978638,499.790161 1200.748657,494.151306 
	C1202.041504,493.621857 1203.842529,492.464386 1204.013184,491.379181 
	C1204.869019,485.936768 1205.260620,480.421356 1205.822998,474.856689 
	C1204.429565,474.856689 1204.055054,474.748596 1203.799805,474.877106 
	C1203.061157,475.248810 1202.395996,475.766907 1201.656860,476.137421 
	C1192.253174,480.851685 1182.573242,484.163239 1171.889160,481.276550 
	C1166.741943,479.885803 1163.052734,476.649689 1161.548828,471.442017 
	C1160.694946,468.485199 1161.231812,466.188080 1165.234863,466.237610 
	C1168.556152,466.278717 1171.886963,465.908203 1175.207031,465.640656 
	C1185.617432,464.801636 1195.734863,462.756378 1204.486694,456.706573 
	C1218.723267,446.865509 1217.760742,427.214172 1202.833130,419.873077 
	C1186.277954,411.731506 1160.057739,417.758820 1148.421387,432.103333 
	C1138.718872,444.063965 1135.344604,457.671753 1137.071411,473.583405 
M1074.880371,418.319519 
	C1067.156860,418.319519 1059.433472,418.319519 1051.236572,418.319519 
	C1051.706055,420.389404 1051.885498,421.509033 1052.214722,422.582733 
	C1058.259644,442.298279 1064.313354,462.011108 1070.387451,481.717651 
	C1071.949829,486.786469 1072.134644,493.816376 1075.588379,496.345795 
	C1079.246948,499.025269 1086.078369,497.139709 1091.465576,497.757263 
	C1096.843872,498.373749 1099.487427,495.874695 1101.838379,491.366638 
	C1112.137817,471.617523 1122.762939,452.038422 1133.255127,432.389740 
	C1135.549438,428.093170 1137.783325,423.764252 1140.620605,418.352325 
	C1133.070312,418.352325 1126.815674,418.492889 1120.571899,418.293304 
	C1117.426270,418.192749 1115.767700,419.438721 1114.478271,422.226990 
	C1107.707520,436.867615 1100.796753,451.443726 1093.881592,466.016998 
	C1093.115112,467.632019 1092.010986,469.086731 1090.527832,471.480286 
	C1089.723511,469.169952 1089.247925,468.126526 1088.996216,467.031616 
	C1085.606567,452.280273 1082.311646,437.506592 1078.792480,422.786438 
	C1078.402954,421.156799 1076.777344,419.822601 1074.880371,418.319519 
M799.840149,465.504669 
	C800.929749,455.462891 802.019348,445.421112 803.166382,434.849976 
	C810.491638,434.849976 817.387268,434.849976 824.430298,434.849976 
	C825.078125,429.086395 825.662048,423.890839 826.307678,418.146484 
	C819.017517,418.146484 812.260986,418.146484 805.167908,418.146484 
	C806.174072,409.751251 807.116882,401.884827 808.127075,393.456085 
	C802.376221,394.434814 797.215271,395.512756 791.999695,396.124390 
	C788.964172,396.480377 787.639465,397.817444 787.261780,400.735809 
	C787.008118,402.696259 786.285095,404.597626 785.752869,406.520081 
	C784.734436,410.198334 784.800293,415.303009 782.378845,417.161987 
	C779.755310,419.176056 774.807312,418.154694 770.875610,418.487732 
	C770.591370,418.511810 770.328308,418.784973 769.765076,419.109619 
	C769.139099,424.125122 768.489990,429.325775 767.808960,434.782318 
	C771.714294,434.993011 775.296204,435.186249 779.377258,435.406403 
	C779.093689,437.808807 778.839111,439.743469 778.640625,441.683899 
	C777.354919,454.251831 775.619141,466.796234 774.944824,479.397278 
	C774.366699,490.198914 779.496216,496.123047 789.945312,498.652222 
	C798.486267,500.719482 806.795471,499.615692 814.864136,496.416077 
	C815.753479,496.063385 816.844727,495.041656 816.990479,494.185211 
	C817.875854,488.983734 818.514038,483.740173 819.302368,478.020264 
	C817.117004,478.883301 815.466797,479.575256 813.788757,480.191254 
	C803.068176,484.126678 797.975891,480.099701 799.446167,468.863434 
	C799.554138,468.038696 799.668030,467.214752 799.840149,465.504669 
M705.389038,434.048340 
	C702.620544,446.078979 704.931885,452.499207 714.587708,458.972412 
	C717.343201,460.819641 720.364136,462.266937 723.229675,463.954834 
	C726.662903,465.977051 730.430969,467.648773 733.337524,470.267548 
	C735.162842,471.912170 736.899841,475.293823 736.429077,477.391907 
	C735.947388,479.538971 732.994202,481.839142 730.629333,482.673553 
	C727.794128,483.673859 724.243835,483.946381 721.344482,483.202972 
	C714.705383,481.500732 708.273804,478.989166 701.580872,476.746918 
	C700.845093,482.115631 700.021851,488.122070 699.211548,494.034119 
	C711.886780,500.523499 730.993469,501.425903 743.573730,496.247009 
	C751.336304,493.051392 757.356201,488.090454 759.512024,479.618286 
	C762.175537,469.151154 758.522095,460.921356 748.368958,454.848816 
	C742.954346,451.610382 736.983948,449.257050 731.765503,445.757050 
	C729.725220,444.388611 727.536499,440.467468 728.150574,438.616333 
	C728.920776,436.294312 732.270386,434.094208 734.933228,433.332550 
	C737.804993,432.511139 741.283386,432.942474 744.293213,433.670319 
	C749.066833,434.824768 753.670959,436.679901 758.674011,438.347656 
	C759.396545,432.593994 760.133545,426.724945 760.897644,420.639862 
	C750.817810,417.014404 740.772705,415.311005 730.348328,416.985809 
	C719.694275,418.697540 710.607056,422.906342 705.389038,434.048340 
M975.014099,448.740753 
	C981.270142,438.625183 990.487671,438.672089 1000.799316,442.011536 
	C1002.805847,433.472595 1004.674927,425.518524 1006.576660,417.425659 
	C991.708130,414.214600 981.668274,420.531494 972.942505,431.187317 
	C972.234680,427.920837 972.123779,425.040192 972.266541,422.172211 
	C972.402527,419.441040 971.445923,418.185669 968.558777,418.283661 
	C964.402283,418.424713 960.221313,418.524017 956.079956,418.229767 
	C952.157471,417.951050 950.588745,419.031982 950.284119,423.333405 
	C949.403137,435.770386 947.989380,448.171814 946.669495,460.574951 
	C945.387512,472.622284 943.962891,484.654419 942.487976,497.691254 
	C949.588013,497.691254 956.174011,497.604370 962.755859,497.731018 
	C965.677246,497.787231 966.754211,496.788574 966.980042,493.744507 
	C967.632385,484.953217 968.302551,476.130554 969.700623,467.438385 
	C970.688416,461.296570 972.872925,455.347260 975.014099,448.740753 
M548.627869,475.794617 
	C547.778137,482.980042 546.928345,490.165497 546.056641,497.536316 
	C554.440552,497.536316 562.022827,497.536316 569.816528,497.536316 
	C571.157898,484.854889 572.206116,472.422546 573.854553,460.070312 
	C575.505371,447.700165 586.485413,435.038391 602.586121,441.657654 
	C602.991882,441.824463 603.526123,441.678680 604.438171,441.678680 
	C606.226746,433.617859 608.005066,425.603119 609.806641,417.483887 
	C593.546814,414.085449 583.596863,422.228119 574.695740,435.148743 
	C574.695740,428.500153 574.695740,423.575470 574.695740,418.529846 
	C567.704285,418.529846 561.112427,418.529846 554.424255,418.529846 
	C552.520325,437.523987 550.646667,456.216522 548.627869,475.794617 
M1039.249390,457.080139 
	C1040.558472,445.690643 1041.808105,434.293793 1043.212769,422.916077 
	C1043.634766,419.498047 1042.653442,417.996094 1038.994873,418.164459 
	C1033.849976,418.401215 1028.680908,418.447357 1023.536194,418.236389 
	C1020.319763,418.104492 1019.312134,419.254028 1018.992615,422.423920 
	C1017.242920,439.779694 1015.244812,457.110321 1013.335632,474.450012 
	C1012.507446,481.971985 1011.687744,489.494873 1010.794067,497.658569 
	C1018.601868,497.658569 1025.714478,497.806030 1032.805664,497.482300 
	C1033.751099,497.439148 1035.212036,495.079956 1035.375977,493.670319 
	C1036.756226,481.791199 1037.890015,469.883423 1039.249390,457.080139 
M789.848694,556.583069 
	C790.422302,546.368774 790.995972,536.154480 791.576721,525.813232 
	C788.051086,525.813232 785.176270,525.813232 782.263428,525.813232 
	C781.896484,533.379639 781.547791,540.568542 781.199097,547.757446 
	C777.437805,542.599182 774.805237,537.159546 772.056824,531.779053 
	C768.484680,524.785583 766.284912,523.926208 758.348328,526.206787 
	C757.820312,538.745483 757.292053,551.291626 756.762085,563.876587 
	C759.936035,563.876587 762.676453,563.876587 765.666687,563.876587 
	C766.127014,556.455261 766.569153,549.327820 767.011292,542.200439 
	C770.743042,547.291626 773.389832,552.565674 776.019958,557.847961 
	C779.461853,564.760559 781.672119,565.685303 789.806213,563.357788 
	C789.806213,561.462769 789.806213,559.475403 789.848694,556.583069 
M1188.493408,546.490540 
	C1193.770752,546.490540 1199.048096,546.490540 1204.325439,546.490540 
	C1201.680054,542.719971 960.341431,542.115234 955.363281,545.117554 
	C957.574097,545.999512 959.885132,546.535583 962.196289,546.536072 
	C1037.296021,546.552673 1112.395874,546.517700 1188.493408,546.490540 
M840.682983,559.220886 
	C841.696167,557.907898 842.841003,556.675476 843.701843,555.269287 
	C850.919800,543.478821 845.704224,528.320007 833.114990,526.257751 
	C826.053284,525.100891 818.646667,526.049438 810.533081,526.049438 
	C810.533081,538.595581 810.533081,551.170227 810.533081,564.367310 
	C814.705322,564.367310 819.476990,564.352173 824.248474,564.371155 
	C830.017761,564.394165 835.498169,563.459290 840.682983,559.220886 
M552.499390,546.585449 
	C590.797180,546.582153 629.094910,546.583069 667.392700,546.572815 
	C678.049255,546.570007 688.706360,546.582520 699.361755,546.459106 
	C700.902588,546.441284 702.434998,545.697693 703.971313,545.289917 
	C703.842407,544.664185 703.713562,544.038513 703.584717,543.412781 
	C701.847961,543.335571 700.111328,543.192444 698.374573,543.191223 
	C679.225464,543.177979 660.076416,543.188965 640.927307,543.189087 
	C585.977844,543.189270 531.028381,543.179565 476.078918,543.220520 
	C474.219269,543.221924 472.360016,543.725159 470.500580,543.994446 
	C470.569733,544.859741 470.638916,545.725098 470.708069,546.590393 
	C497.638519,546.590393 524.568970,546.590393 552.499390,546.585449 
M918.565308,557.481201 
	C921.314026,565.241821 921.976562,565.586853 930.655334,563.513306 
	C926.504272,551.562256 922.391846,539.633423 918.170898,527.743103 
	C917.842102,526.816772 916.889160,525.726868 915.996765,525.448181 
	C910.142944,523.620056 905.980774,525.680237 903.723022,531.294495 
	C903.350098,532.221924 902.957458,533.141479 902.582825,534.068237 
	C898.614990,543.884949 894.648926,553.702271 890.639648,563.625305 
	C898.974670,565.112549 898.917358,565.078003 902.946533,558.390381 
	C903.519409,557.439514 904.953918,556.462769 906.007141,556.443298 
	C909.971313,556.370117 913.942749,556.687988 918.565308,557.481201 
M1045.690674,401.208557 
	C1047.222900,399.262604 1049.147339,397.509125 1050.214233,395.334839 
	C1053.487183,388.664764 1050.771362,381.439514 1044.433472,379.169556 
	C1035.964844,376.136414 1025.383179,380.421539 1021.447876,388.477814 
	C1017.741943,396.064453 1021.466125,403.929199 1029.720459,405.826904 
	C1035.574097,407.172699 1040.442505,404.693695 1045.690674,401.208557 
M1086.726562,624.219177 
	C1087.469727,619.462402 1088.448120,614.727783 1088.900757,609.943481 
	C1089.572388,602.843384 1085.879272,600.046570 1079.110352,602.301392 
	C1077.729492,602.761353 1076.482544,603.623779 1075.738892,604.008423 
	C1072.821777,603.126282 1070.348755,601.736267 1067.913818,601.800232 
	C1064.678345,601.885376 1061.562866,603.856873 1058.115234,602.257446 
	C1057.616455,602.026123 1055.772217,603.171753 1055.665649,603.854431 
	C1054.599854,610.673523 1053.768066,617.529175 1052.796265,624.937683 
	C1055.291382,624.741089 1056.839355,624.619080 1058.489868,624.489014 
	C1058.787476,621.899414 1058.886230,619.734436 1059.314941,617.636841 
	C1059.876831,614.887695 1060.161743,611.851685 1061.593750,609.589661 
	C1062.585815,608.022400 1065.312988,607.553528 1067.264893,606.593811 
	C1067.784180,608.332642 1068.811157,610.097778 1068.722778,611.805054 
	C1068.502930,616.042297 1067.773926,620.253113 1067.266846,624.334351 
	C1071.510132,625.727478 1072.805542,624.377869 1073.313965,620.636169 
	C1073.879517,616.474854 1075.126587,612.312988 1076.777466,608.450867 
	C1077.252686,607.338928 1080.147705,607.261292 1081.933228,606.709473 
	C1082.349121,608.200684 1083.196411,609.720337 1083.100342,611.177795 
	C1082.808716,615.603333 1082.152466,620.004883 1081.604004,624.708923 
	C1083.522705,624.708923 1084.815918,624.708923 1086.726562,624.219177 
M805.982849,624.677734 
	C807.598633,624.286011 809.264343,624.034363 810.821838,623.479126 
	C818.953491,620.579712 823.293579,612.372925 821.808716,602.856384 
	C820.823486,596.541748 815.572632,592.843323 806.827148,592.409180 
	C804.335449,592.285339 801.812744,592.199524 799.344482,592.467346 
	C798.289185,592.581909 796.566101,593.533386 796.454407,594.296143 
	C794.995667,604.261108 793.771545,614.260498 792.420166,624.783203 
	C797.163269,624.783203 801.129395,624.783203 805.982849,624.677734 
M774.642822,620.235901 
	C775.903503,610.401855 777.164185,600.567871 778.490051,590.224976 
	C776.447449,590.317688 774.897583,590.388062 773.333984,590.459045 
	C772.638550,594.717957 772.010986,598.561462 771.390076,602.364014 
	C763.663574,601.372437 759.306030,602.803772 755.934937,607.114746 
	C752.938354,610.946777 752.222534,618.152832 754.532837,621.746521 
	C756.778992,625.240356 760.298889,625.682251 763.802490,624.814514 
	C766.380920,624.176025 768.644287,623.002380 771.349365,624.550598 
	C771.656433,624.726379 773.455383,622.295593 774.642822,620.235901 
M967.298340,618.844543 
	C965.515015,611.083679 963.809387,603.303284 961.862671,595.583618 
	C961.578186,594.455505 960.151733,592.824036 959.241089,592.815857 
	C957.529663,592.800354 954.873169,593.291748 954.239807,594.457703 
	C948.961548,604.176514 944.055237,614.097351 938.934875,624.156982 
	C943.038635,625.858093 944.742859,624.010986 946.383789,621.121277 
	C947.485657,619.180664 949.133423,616.725525 950.997437,616.228943 
	C954.050110,615.415710 957.477417,616.008972 960.564941,616.008972 
	C963.100769,625.110657 963.100769,625.110657 968.456055,624.327820 
	C968.143677,622.745361 967.834656,621.179504 967.298340,618.844543 
M738.896973,528.827087 
	C737.865906,521.418518 732.815247,527.130005 729.765076,525.135925 
	C729.206909,538.598511 728.686646,551.147705 728.158142,563.895203 
	C731.235901,563.895203 734.085266,563.895203 737.190247,563.895203 
	C737.767883,552.264832 738.326965,541.009216 738.896973,528.827087 
M864.271790,554.538513 
	C864.124451,557.757263 863.977112,560.975952 863.834290,564.095703 
	C867.303345,564.095703 870.046631,564.095703 872.948242,564.095703 
	C873.378357,557.522644 873.951233,551.257019 874.153687,544.979431 
	C874.359131,538.604736 874.198975,532.218140 874.198975,525.868286 
	C871.359314,525.868286 868.520142,525.868286 865.795654,525.868286 
	C865.289124,535.435547 864.807678,544.528625 864.271790,554.538513 
M987.768066,619.829102 
	C987.652039,621.402344 987.536072,622.975647 987.397156,624.858887 
	C989.465149,624.747437 990.902405,624.669922 992.593872,624.578735 
	C993.464417,618.974426 994.496338,613.616882 995.070679,608.210632 
	C995.496826,604.199463 993.168762,601.714417 989.228943,601.773132 
	C984.611084,601.841980 980.003784,602.614746 975.186890,603.103027 
	C974.280090,610.184753 973.362854,617.347595 972.433289,624.607178 
	C974.578064,624.607178 976.017700,624.607178 977.762817,624.607178 
	C978.140015,621.814880 978.240967,619.146179 978.908142,616.627502 
	C979.694031,613.660400 980.563293,610.553894 982.218140,608.051208 
	C982.965820,606.920410 985.768066,606.651733 987.498779,606.913696 
	C988.183228,607.017273 988.901672,609.634338 988.875977,611.094055 
	C988.829468,613.729004 988.234619,616.354309 987.768066,619.829102 
M592.097168,610.942139 
	C592.361816,608.195190 592.626526,605.448303 592.888306,602.731506 
	C587.879089,602.146667 588.084412,602.190247 587.259216,606.076721 
	C586.380432,610.216003 585.431702,614.427795 583.719360,618.252380 
	C583.163025,619.494995 580.105652,619.617859 578.192261,620.252808 
	C577.723145,618.643860 576.785156,617.007996 576.875427,615.431091 
	C577.118347,611.188965 577.800354,606.972046 578.308044,602.745178 
	C577.877197,602.338928 577.446411,601.932678 577.015564,601.526428 
	C575.538818,602.641602 573.100586,603.523254 572.762634,604.914978 
	C571.672791,609.403076 571.203186,614.065369 570.790710,618.686890 
	C570.463867,622.349487 572.117981,625.038635 576.071899,625.018127 
	C580.792969,624.993713 585.511292,624.442688 590.447205,624.104919 
	C590.949585,620.029663 591.455200,615.927673 592.097168,610.942139 
M688.398376,603.838013 
	C685.235962,601.234558 683.502258,601.621277 682.722168,605.025635 
	C681.730774,609.352112 681.059204,613.828613 679.377869,617.878418 
	C678.796021,619.279724 675.606995,619.598572 673.608887,620.411804 
	C673.091553,618.652222 672.065430,616.865540 672.157654,615.138489 
	C672.383301,610.916016 673.125854,606.721191 673.660339,602.515198 
	C673.217407,602.157532 672.774414,601.799866 672.331421,601.442200 
	C670.855957,602.471558 668.375793,603.275757 668.085510,604.570740 
	C667.034790,609.258606 666.599426,614.100281 666.163208,618.904968 
	C665.787781,623.039917 668.010254,625.272766 672.059021,625.179016 
	C676.502869,625.075989 680.936890,624.547546 685.697815,624.179565 
	C686.553467,617.758240 687.429443,611.184937 688.398376,603.838013 
M554.304871,601.972595 
	C551.984009,603.171326 549.289734,603.955933 547.413513,605.647705 
	C542.156067,610.388306 542.420715,620.431519 547.583740,623.752930 
	C551.366272,626.186279 558.245056,625.524353 562.104309,622.355591 
	C566.153809,619.030640 567.936401,612.421143 566.078369,607.365540 
	C564.144104,602.102478 559.827942,601.518860 554.304871,601.972595 
M888.067200,620.583984 
	C886.864563,619.381348 885.661926,618.178711 884.113098,616.629822 
	C888.544800,615.733582 891.901001,615.410339 894.994629,614.332947 
	C898.340210,613.167786 900.788574,610.622437 900.119141,606.753601 
	C899.419739,602.711609 896.040405,601.266357 892.566650,601.933044 
	C889.137390,602.591309 885.446655,603.869019 882.771667,606.003967 
	C878.900696,609.093384 878.057495,617.615784 880.384094,621.282593 
	C882.746948,625.006531 889.511047,626.636414 894.918335,624.363220 
	C896.203796,623.822754 896.869629,621.808228 898.270447,619.839294 
	C894.075500,620.251770 891.458313,620.509155 888.067200,620.583984 
M742.562988,601.807678 
	C741.098389,602.072021 739.562927,602.138794 738.181274,602.634399 
	C731.635681,604.982544 727.710754,613.302734 729.967590,619.833862 
	C731.681030,624.792419 737.527344,626.735779 744.442810,624.650146 
	C746.943420,623.895996 748.603333,622.748169 746.939087,619.831848 
	C739.205200,622.153198 736.813477,621.404175 735.272644,616.158020 
	C738.212036,615.742493 741.241272,615.687988 744.019592,614.825439 
	C747.368164,613.785828 750.832397,612.132324 750.559448,607.776550 
	C750.290100,603.478699 747.235229,601.977295 742.562988,601.807678 
M1112.827881,612.339172 
	C1116.150146,606.489746 1113.746704,602.039368 1107.193359,601.906006 
	C1099.470947,601.748840 1093.481689,607.806335 1093.433838,615.907959 
	C1093.413208,619.385742 1093.953979,623.303040 1097.814819,623.935303 
	C1102.032471,624.626038 1106.504150,623.894348 1110.840088,623.505310 
	C1111.208618,623.472229 1111.389526,621.348633 1111.727539,619.895447 
	C1103.136475,621.963806 1100.769531,621.222778 1099.732422,617.000061 
	C1103.949219,615.602295 1108.117676,614.220642 1112.827881,612.339172 
M632.198181,597.267029 
	C632.998047,598.389648 634.458130,599.506958 634.467224,600.636047 
	C634.489868,603.427673 633.833313,606.222717 633.476379,609.019836 
	C632.816772,614.189270 632.176025,619.361206 631.519165,624.598328 
	C633.851257,624.598328 635.449036,624.598328 637.311646,624.598328 
	C638.226685,617.329895 639.387268,610.291687 639.906494,603.206421 
	C640.242554,598.620239 641.388733,595.978699 646.649536,596.899658 
	C649.482117,597.395447 651.621704,596.612366 650.372742,592.622009 
	C643.179688,592.622009 636.054565,592.482178 628.945374,592.756409 
	C627.726318,592.803406 626.575317,594.615967 625.392822,595.612976 
	C625.719849,596.000793 626.046875,596.388672 626.373840,596.776489 
	C628.015137,596.921143 629.656372,597.065735 632.198181,597.267029 
M862.792419,624.733826 
	C864.280884,624.277405 866.543152,624.281311 867.132935,623.290100 
	C871.091003,616.637695 874.693542,609.773743 878.552063,602.721130 
	C874.386902,601.521484 872.156921,602.510437 870.703186,606.216553 
	C869.390198,609.563904 867.319092,612.613831 865.582275,615.794922 
	C865.155273,615.666565 864.728271,615.538208 864.301270,615.409851 
	C863.206787,611.133240 862.112244,606.856628 861.042664,602.677551 
	C859.077332,602.677551 857.384399,602.677551 855.277466,602.677551 
	C856.410400,607.161804 857.279419,611.205627 858.476318,615.150024 
	C859.456421,618.380249 860.827148,621.491943 862.792419,624.733826 
M719.825317,615.748657 
	C720.245422,612.838989 720.665466,609.929382 721.065918,607.155396 
	C727.476868,606.600830 727.476868,606.600830 727.017578,602.654053 
	C725.330444,602.325439 723.623230,601.992981 721.914673,601.660217 
	C721.914673,599.410828 721.914673,597.513000 721.914673,593.903564 
	C719.516907,596.042603 718.084045,597.217651 716.775696,598.518188 
	C715.566833,599.719788 714.203430,600.907410 713.446167,602.378235 
	C712.808533,603.616943 712.943970,605.253662 712.737183,606.714172 
	C716.472290,606.934692 714.986023,609.669189 714.910217,611.521118 
	C714.781494,614.667053 713.996704,617.819824 714.155701,620.935547 
	C714.365051,625.039429 717.710571,625.173767 720.804443,625.094482 
	C723.278015,625.031067 726.190369,625.225220 725.016357,620.900879 
	C722.577820,620.476196 718.862000,621.257263 719.825317,615.748657 
M706.700562,622.053040 
	C708.793457,618.385437 707.846863,615.529785 704.635010,612.949951 
	C702.529968,611.259155 700.782227,609.123535 698.874451,607.187134 
	C701.636902,606.742432 704.399414,606.297791 707.970215,605.723022 
	C708.798889,604.164185 709.288208,602.092957 705.455444,602.117249 
	C702.687500,602.134705 699.724426,602.035706 697.197693,602.951904 
	C692.170898,604.774597 691.543945,610.199646 695.737976,613.547913 
	C697.150024,614.675232 698.947266,615.321106 700.354675,616.452942 
	C701.147461,617.090576 702.183533,618.702209 701.919312,619.117493 
	C701.330383,620.043091 700.018188,620.982666 698.956726,621.035645 
	C696.684265,621.149109 694.383911,620.704163 690.224609,620.311218 
	C691.818909,622.437256 692.482971,624.305542 693.551208,624.575684 
	C697.952454,625.688843 702.437073,626.075500 706.700562,622.053040 
M911.376587,610.220703 
	C913.746826,608.732544 916.117065,607.244385 919.436401,605.160339 
	C919.441650,605.108276 919.583557,603.707642 919.730530,602.256897 
	C915.393921,602.256897 911.420837,602.193970 907.454590,602.328369 
	C906.891296,602.347473 905.960022,603.269897 905.876282,603.868958 
	C904.925293,610.669312 904.106201,617.488220 903.237427,624.417603 
	C905.464539,624.417603 907.011597,624.417603 908.349976,624.417603 
	C909.280579,619.671753 910.136108,615.308777 911.376587,610.220703 
M597.780701,615.824341 
	C597.447632,618.730774 597.114624,621.637207 596.739075,624.914856 
	C598.925476,624.806885 600.508057,624.728699 602.240356,624.643188 
	C602.735107,620.862671 602.567932,617.173157 603.821899,614.055176 
	C604.919617,611.325562 607.213257,607.949280 609.699585,607.175598 
	C613.244446,606.072510 613.098938,604.539978 612.810547,602.212891 
	C608.897522,602.212891 605.316650,602.017395 601.783997,602.344055 
	C600.848511,602.430603 599.545837,604.009888 599.303650,605.101501 
	C598.587158,608.331848 598.316284,611.661194 597.780701,615.824341 
M831.659607,618.366028 
	C832.053345,612.187988 833.206543,606.596924 841.324097,606.540161 
	C841.455322,604.821167 841.561401,603.431824 841.603455,602.880615 
	C836.828430,602.880615 832.460754,602.880615 827.926941,602.880615 
	C827.106750,609.923523 826.270874,617.101440 825.437378,624.258423 
	C830.584534,625.017212 830.584534,625.017212 831.659607,618.366028 
M654.331055,618.225647 
	C655.698608,608.738831 656.320679,607.947449 663.847839,606.394043 
	C663.980652,605.065796 664.120544,603.666565 664.267212,602.199646 
	C660.122375,602.199646 656.358582,602.110474 652.606201,602.277527 
	C651.885315,602.309692 650.677917,603.280090 650.594299,603.932861 
	C649.716553,610.788147 649.021790,617.666870 648.266663,624.629028 
	C650.310364,624.629028 651.752380,624.629028 653.480713,624.629028 
	C653.753662,622.642456 653.998779,620.858704 654.331055,618.225647 
M1042.307739,613.510010 
	C1041.938843,617.083923 1041.569824,620.657837 1041.025635,625.930603 
	C1043.749756,624.475342 1046.458984,623.862366 1046.658447,622.784973 
	C1047.884033,616.162048 1048.542725,609.434143 1049.465088,602.148254 
	C1047.024780,602.380188 1045.335815,602.540710 1043.763794,602.690125 
	C1043.273315,606.388123 1042.859375,609.509155 1042.307739,613.510010 
M848.520325,623.055786 
	C849.467834,616.354126 850.415344,609.652405 851.401489,602.677307 
	C849.230347,602.677307 847.556641,602.677307 845.656433,602.677307 
	C844.739258,610.234924 843.870667,617.392151 842.888794,625.483032 
	C845.384338,624.726135 846.836853,624.285583 848.520325,623.055786 
M916.053589,629.359070 
	C917.366211,629.614319 919.582520,630.448425 919.848389,630.033264 
	C921.971375,626.718689 923.724915,623.167542 925.760742,619.373840 
	C921.612305,618.550110 919.440491,619.315613 918.581543,622.815125 
	C918.077271,624.869446 917.070862,626.800476 916.053589,629.359070 
M1116.636475,621.769897 
	C1117.936890,622.819458 1119.113403,624.330566 1120.589355,624.727112 
	C1121.346558,624.930481 1123.086548,623.319580 1123.530029,622.193054 
	C1123.820435,621.455505 1122.406128,619.146362 1122.060913,619.209534 
	C1120.237061,619.543518 1118.510376,620.407227 1116.636475,621.769897 
M1046.903320,592.265320 
	C1046.159546,593.685791 1045.415771,595.106201 1044.671997,596.526672 
	C1045.933228,597.053040 1047.336060,598.188965 1048.416626,597.937805 
	C1049.544434,597.675842 1050.361694,596.077820 1051.314819,595.063904 
	C1050.082031,594.074097 1048.849243,593.084290 1046.903320,592.265320 
M849.250732,598.310791 
	C850.588379,597.098267 851.926025,595.885681 853.263733,594.673218 
	C852.261780,593.761658 851.256287,592.113892 850.258789,592.118713 
	C848.915039,592.125183 847.577454,593.404785 846.237183,594.138000 
	C847.014832,595.518127 847.792480,596.898254 849.250732,598.310791 
z"/>
<path fill="#0F3A70" opacity="1.000000" stroke="none" 
	d="
M318.821533,608.875610 
	C317.245300,608.546692 315.558502,608.474609 314.109100,607.850952 
	C283.509399,594.685913 256.639160,576.425171 235.677811,550.153442 
	C217.486053,527.353027 206.097275,501.337036 199.181076,473.172668 
	C190.410599,437.457245 188.802765,401.092743 189.101639,364.544617 
	C189.106964,363.894379 189.261429,363.245422 189.385178,362.298340 
	C198.568161,360.692596 207.764191,359.312073 216.862366,357.452759 
	C249.313248,350.820892 280.282501,339.729736 310.358673,326.004639 
	C311.540436,325.465363 312.823029,325.147064 314.367126,325.357544 
	C314.785309,335.659698 314.895081,345.330170 314.619629,355.145813 
	C313.077179,355.366913 311.919830,355.440338 310.762817,355.519012 
	C270.713257,358.242523 240.405243,376.349213 222.512405,412.814880 
	C202.918045,452.748352 214.823532,502.050873 249.890213,529.793518 
	C269.916412,545.637024 292.567566,553.878540 318.105194,554.587769 
	C318.338776,572.990784 318.580170,590.933228 318.821533,608.875610 
z"/>
<path fill="#ECB512" opacity="1.000000" stroke="none" 
	d="
M315.004852,355.000610 
	C314.895081,345.330170 314.785309,335.659698 314.730286,325.521667 
	C320.447540,327.144379 326.215637,328.988586 331.755310,331.365326 
	C365.401398,345.800964 400.161377,356.298889 436.516052,361.133148 
	C439.899872,361.583130 441.046570,362.770569 441.001862,366.121582 
	C440.726593,386.753143 441.644165,407.464386 440.113434,427.996124 
	C438.786835,445.790527 434.741974,463.382233 431.480927,480.900940 
	C428.000885,478.089874 424.938477,475.441406 421.919098,472.830170 
	C422.108704,471.755432 422.924225,470.088715 422.514862,468.815948 
	C421.745728,466.424469 420.268951,464.260620 418.990173,461.543060 
	C418.892426,460.087036 418.885193,459.090057 418.890259,458.093109 
	C419.073181,422.068909 403.546936,394.251617 374.466614,373.690582 
	C356.696869,361.126556 336.527557,355.817352 315.004852,355.000610 
z"/>
<path fill="#E69F0E" opacity="1.000000" stroke="none" 
	d="
M419.086426,462.002106 
	C420.268951,464.260620 421.745728,466.424469 422.514862,468.815948 
	C422.924225,470.088715 422.108704,471.755432 421.919098,472.830170 
	C424.938477,475.441406 428.000885,478.089874 431.181000,481.115936 
	C431.025421,483.214111 430.752167,484.934662 430.246765,487.078430 
	C430.014587,487.501678 429.923248,487.676544 429.923248,487.676544 
	C429.923248,487.676544 430.026794,487.875427 429.717957,488.125488 
	C429.326508,488.747925 429.243896,489.120331 429.161316,489.492706 
	C425.640839,499.305206 422.853516,509.458954 418.472626,518.870911 
	C399.828033,558.927185 369.076599,586.684509 329.267517,604.916992 
	C326.108704,606.363586 322.835602,607.560547 319.218597,608.874573 
	C318.580170,590.933228 318.338776,572.990784 318.526703,554.534790 
	C319.948242,553.919739 320.938293,553.782166 321.933044,553.721863 
	C356.708923,551.614197 384.607574,536.800232 403.658051,507.479462 
	C409.501038,498.486542 412.698029,487.672211 416.403076,477.437225 
	C418.153412,472.602020 418.243896,467.165924 419.086426,462.002106 
z"/>
<path fill="#103B71" opacity="1.000000" stroke="none" 
	d="
M692.184265,430.489502 
	C689.754089,453.071899 687.372437,475.207825 684.962524,497.606628 
	C678.075623,497.606628 671.313965,497.606628 664.120972,497.606628 
	C664.120972,493.372345 664.120972,489.285828 664.120972,484.336639 
	C661.424133,487.009949 659.416199,489.099121 657.303040,491.075745 
	C652.030273,496.007782 645.793762,498.884552 638.588989,499.562988 
	C621.863770,501.137939 611.010193,490.999969 612.453430,474.302765 
	C614.055481,455.768219 616.427734,437.300232 618.501038,418.473053 
	C626.202454,418.473053 633.904968,418.473053 642.154480,418.473053 
	C640.900574,429.910980 639.653320,440.949402 638.494080,451.997040 
	C637.851685,458.118988 637.102417,464.246155 636.855530,470.389221 
	C636.506775,479.065887 643.070374,483.488617 651.159851,480.065735 
	C659.207031,476.660675 663.735168,469.948578 664.978760,461.743744 
	C667.045898,448.105316 668.153381,434.321503 669.672485,420.599762 
	C669.743530,419.958191 669.887146,419.324677 670.039062,418.442444 
	C677.604858,418.442444 685.049438,418.442444 693.314514,418.442444 
	C692.957397,422.272400 692.595093,426.157715 692.184265,430.489502 
z"/>
<path fill="#EBAD0F" opacity="1.000000" stroke="none" 
	d="
M923.115967,471.457947 
	C923.115967,471.457916 923.192322,471.771240 922.732666,471.923096 
	C920.116455,473.845856 918.127014,475.894257 915.761780,477.318695 
	C912.684631,479.171906 909.592163,481.721436 905.371399,480.565552 
	C907.309448,478.540466 908.813110,476.969299 910.316711,475.398163 
	C910.018799,474.968750 909.720825,474.539368 909.422913,474.109985 
	C907.552979,474.322632 905.683044,474.535309 903.600952,474.772095 
	C902.405212,472.854004 901.200928,470.922211 900.130615,468.686951 
	C901.838989,466.586548 903.413391,464.789612 904.984497,463.391083 
	C904.783936,465.757385 904.586609,467.725281 904.389343,469.693176 
	C908.148315,466.081909 907.978271,463.036987 905.143555,461.671204 
	C911.883179,451.042786 912.958740,439.484619 911.835571,427.824280 
	C910.946716,418.597321 906.542847,410.794220 898.342041,405.693756 
	C888.697571,399.695343 877.937927,399.586487 867.145386,400.182983 
	C866.037903,400.244171 864.511841,402.296539 864.105103,403.694183 
	C862.834045,408.061615 862.006653,412.558075 860.664856,417.058746 
	C860.217041,418.411407 860.111755,419.709900 860.005615,421.380646 
	C860.006104,422.497467 860.007385,423.242004 860.112427,424.209290 
	C860.413879,424.708862 860.674377,424.900208 860.998596,425.405029 
	C861.002014,426.867798 861.004395,427.931641 861.033875,429.355286 
	C861.090393,429.953857 861.119751,430.192627 861.203857,430.580017 
	C861.258667,430.728699 861.098877,431.002319 860.728882,431.056976 
	C858.559753,431.686981 856.473694,433.148468 855.014099,432.675690 
	C850.143066,431.097992 849.529358,434.141541 849.039734,437.457428 
	C848.492004,441.166412 848.154236,444.906372 847.671997,449.093384 
	C845.887024,448.449127 844.681152,448.013885 843.390625,447.548126 
	C843.045227,449.798584 842.765320,451.622009 842.332275,454.443176 
	C839.644897,450.310577 843.416687,444.579559 837.286743,443.400238 
	C837.802429,441.931458 838.513611,440.748779 838.592651,439.525238 
	C838.845703,435.609985 839.041443,431.673187 838.898071,427.757904 
	C838.827454,425.827820 837.963135,423.926849 837.457886,422.012695 
	C838.749451,409.595947 839.971558,397.170929 841.445618,384.775879 
	C841.585022,383.603485 843.324158,381.669037 844.289795,381.687531 
	C864.012329,382.065918 883.920593,379.591339 903.230774,386.170959 
	C927.153992,394.322449 939.739990,414.038452 936.592041,439.171936 
	C935.211670,450.192780 932.603271,460.764801 925.160645,469.671204 
	C924.532349,469.805115 924.352539,470.034515 924.172791,470.263916 
	C924.172791,470.263916 924.092590,470.141205 923.867676,470.240082 
	C923.467224,470.711945 923.291626,471.084930 923.115967,471.457947 
z"/>
<path fill="#EAAC12" opacity="1.000000" stroke="none" 
	d="
M1136.965332,473.164825 
	C1135.344604,457.671753 1138.718872,444.063965 1148.421387,432.103333 
	C1160.057739,417.758820 1186.277954,411.731506 1202.833130,419.873077 
	C1217.760742,427.214172 1218.723267,446.865509 1204.486694,456.706573 
	C1195.734863,462.756378 1185.617432,464.801636 1175.207031,465.640656 
	C1171.886963,465.908203 1168.556152,466.278717 1165.234863,466.237610 
	C1161.231812,466.188080 1160.694946,468.485199 1161.548828,471.442017 
	C1163.052734,476.649689 1166.741943,479.885803 1171.889160,481.276550 
	C1182.573242,484.163239 1192.253174,480.851685 1201.656860,476.137421 
	C1202.395996,475.766907 1203.061157,475.248810 1203.799805,474.877106 
	C1204.055054,474.748596 1204.429565,474.856689 1205.822998,474.856689 
	C1205.260620,480.421356 1204.869019,485.936768 1204.013184,491.379181 
	C1203.842529,492.464386 1202.041504,493.621857 1200.748657,494.151306 
	C1186.978638,499.790161 1172.849609,501.944672 1158.316162,497.515137 
	C1146.449829,493.898560 1139.046997,486.092926 1136.965332,473.164825 
M1191.839844,439.697632 
	C1190.933716,435.034668 1187.839600,433.155060 1183.358765,432.886566 
	C1172.358398,432.227478 1163.716309,439.763580 1162.643799,451.542847 
	C1171.328613,452.152069 1179.844482,451.730011 1187.480591,447.246338 
	C1189.546387,446.033386 1190.415161,442.781555 1191.839844,439.697632 
z"/>
<path fill="#0E3B72" opacity="1.000000" stroke="none" 
	d="
M472.995911,400.653442 
	C472.551727,400.715942 472.107544,400.778473 471.332550,400.331238 
	C471.334991,396.198944 472.061798,392.558411 471.896667,388.958801 
	C471.712708,384.949097 473.093414,383.894714 477.010712,383.918579 
	C503.172668,384.078003 529.336060,383.996582 555.498962,384.015808 
	C556.747314,384.016724 557.995544,384.229279 559.457642,384.362823 
	C558.828857,388.981812 558.252686,393.213776 557.577148,398.176056 
	C552.138245,398.456757 546.878174,398.618927 541.642273,399.064819 
	C540.060364,399.199585 538.545532,400.120972 536.999939,400.682007 
	C533.857544,400.682007 530.715210,400.682007 526.897705,400.682007 
	C523.457214,433.043610 520.055420,465.041138 516.612976,497.420837 
	C508.233521,497.420837 499.890381,497.420837 491.128235,497.420837 
	C492.582092,483.770477 494.000183,470.561157 495.393372,457.349213 
	C497.224152,439.987549 499.069763,422.627228 500.788422,405.254364 
	C500.923828,403.885590 500.116608,402.423584 499.084015,400.633911 
	C497.356232,399.853210 496.310303,399.149841 495.224579,399.081848 
	C488.531860,398.662811 481.831696,398.308380 475.129303,398.181458 
	C474.434021,398.168274 473.707794,399.790222 472.995911,400.653442 
M474.950073,396.838898 
	C474.799561,396.586212 474.698639,396.205688 474.482574,396.121857 
	C474.314026,396.056488 474.002380,396.359802 473.754333,396.499298 
	C474.002716,396.639221 474.251099,396.779144 474.950073,396.838898 
z"/>
<path fill="#EBAF14" opacity="1.000000" stroke="none" 
	d="
M1075.302734,418.335449 
	C1076.777344,419.822601 1078.402954,421.156799 1078.792480,422.786438 
	C1082.311646,437.506592 1085.606567,452.280273 1088.996216,467.031616 
	C1089.247925,468.126526 1089.723511,469.169952 1090.527832,471.480286 
	C1092.010986,469.086731 1093.115112,467.632019 1093.881592,466.016998 
	C1100.796753,451.443726 1107.707520,436.867615 1114.478271,422.226990 
	C1115.767700,419.438721 1117.426270,418.192749 1120.571899,418.293304 
	C1126.815674,418.492889 1133.070312,418.352325 1140.620605,418.352325 
	C1137.783325,423.764252 1135.549438,428.093170 1133.255127,432.389740 
	C1122.762939,452.038422 1112.137817,471.617523 1101.838379,491.366638 
	C1099.487427,495.874695 1096.843872,498.373749 1091.465576,497.757263 
	C1086.078369,497.139709 1079.246948,499.025269 1075.588379,496.345795 
	C1072.134644,493.816376 1071.949829,486.786469 1070.387451,481.717651 
	C1064.313354,462.011108 1058.259644,442.298279 1052.214722,422.582733 
	C1051.885498,421.509033 1051.706055,420.389404 1051.236572,418.319519 
	C1059.433472,418.319519 1067.156860,418.319519 1075.302734,418.335449 
z"/>
<path fill="#103B71" opacity="1.000000" stroke="none" 
	d="
M799.809631,465.947540 
	C799.668030,467.214752 799.554138,468.038696 799.446167,468.863434 
	C797.975891,480.099701 803.068176,484.126678 813.788757,480.191254 
	C815.466797,479.575256 817.117004,478.883301 819.302368,478.020264 
	C818.514038,483.740173 817.875854,488.983734 816.990479,494.185211 
	C816.844727,495.041656 815.753479,496.063385 814.864136,496.416077 
	C806.795471,499.615692 798.486267,500.719482 789.945312,498.652222 
	C779.496216,496.123047 774.366699,490.198914 774.944824,479.397278 
	C775.619141,466.796234 777.354919,454.251831 778.640625,441.683899 
	C778.839111,439.743469 779.093689,437.808807 779.377258,435.406403 
	C775.296204,435.186249 771.714294,434.993011 767.808960,434.782318 
	C768.489990,429.325775 769.139099,424.125122 769.765076,419.109619 
	C770.328308,418.784973 770.591370,418.511810 770.875610,418.487732 
	C774.807312,418.154694 779.755310,419.176056 782.378845,417.161987 
	C784.800293,415.303009 784.734436,410.198334 785.752869,406.520081 
	C786.285095,404.597626 787.008118,402.696259 787.261780,400.735809 
	C787.639465,397.817444 788.964172,396.480377 791.999695,396.124390 
	C797.215271,395.512756 802.376221,394.434814 808.127075,393.456085 
	C807.116882,401.884827 806.174072,409.751251 805.167908,418.146484 
	C812.260986,418.146484 819.017517,418.146484 826.307678,418.146484 
	C825.662048,423.890839 825.078125,429.086395 824.430298,434.849976 
	C817.387268,434.849976 810.491638,434.849976 803.166382,434.849976 
	C802.019348,445.421112 800.929749,455.462891 799.809631,465.947540 
z"/>
<path fill="#0F3A70" opacity="1.000000" stroke="none" 
	d="
M705.528870,433.682861 
	C710.607056,422.906342 719.694275,418.697540 730.348328,416.985809 
	C740.772705,415.311005 750.817810,417.014404 760.897644,420.639862 
	C760.133545,426.724945 759.396545,432.593994 758.674011,438.347656 
	C753.670959,436.679901 749.066833,434.824768 744.293213,433.670319 
	C741.283386,432.942474 737.804993,432.511139 734.933228,433.332550 
	C732.270386,434.094208 728.920776,436.294312 728.150574,438.616333 
	C727.536499,440.467468 729.725220,444.388611 731.765503,445.757050 
	C736.983948,449.257050 742.954346,451.610382 748.368958,454.848816 
	C758.522095,460.921356 762.175537,469.151154 759.512024,479.618286 
	C757.356201,488.090454 751.336304,493.051392 743.573730,496.247009 
	C730.993469,501.425903 711.886780,500.523499 699.211548,494.034119 
	C700.021851,488.122070 700.845093,482.115631 701.580872,476.746918 
	C708.273804,478.989166 714.705383,481.500732 721.344482,483.202972 
	C724.243835,483.946381 727.794128,483.673859 730.629333,482.673553 
	C732.994202,481.839142 735.947388,479.538971 736.429077,477.391907 
	C736.899841,475.293823 735.162842,471.912170 733.337524,470.267548 
	C730.430969,467.648773 726.662903,465.977051 723.229675,463.954834 
	C720.364136,462.266937 717.343201,460.819641 714.587708,458.972412 
	C704.931885,452.499207 702.620544,446.078979 705.528870,433.682861 
z"/>
<path fill="#EAAC12" opacity="1.000000" stroke="none" 
	d="
M974.768677,449.026367 
	C972.872925,455.347260 970.688416,461.296570 969.700623,467.438385 
	C968.302551,476.130554 967.632385,484.953217 966.980042,493.744507 
	C966.754211,496.788574 965.677246,497.787231 962.755859,497.731018 
	C956.174011,497.604370 949.588013,497.691254 942.487976,497.691254 
	C943.962891,484.654419 945.387512,472.622284 946.669495,460.574951 
	C947.989380,448.171814 949.403137,435.770386 950.284119,423.333405 
	C950.588745,419.031982 952.157471,417.951050 956.079956,418.229767 
	C960.221313,418.524017 964.402283,418.424713 968.558777,418.283661 
	C971.445923,418.185669 972.402527,419.441040 972.266541,422.172211 
	C972.123779,425.040192 972.234680,427.920837 972.942505,431.187317 
	C981.668274,420.531494 991.708130,414.214600 1006.576660,417.425659 
	C1004.674927,425.518524 1002.805847,433.472595 1000.799316,442.011536 
	C990.487671,438.672089 981.270142,438.625183 974.768677,449.026367 
z"/>
<path fill="#103B71" opacity="1.000000" stroke="none" 
	d="
M548.700439,475.351807 
	C550.646667,456.216522 552.520325,437.523987 554.424255,418.529846 
	C561.112427,418.529846 567.704285,418.529846 574.695740,418.529846 
	C574.695740,423.575470 574.695740,428.500153 574.695740,435.148743 
	C583.596863,422.228119 593.546814,414.085449 609.806641,417.483887 
	C608.005066,425.603119 606.226746,433.617859 604.438171,441.678680 
	C603.526123,441.678680 602.991882,441.824463 602.586121,441.657654 
	C586.485413,435.038391 575.505371,447.700165 573.854553,460.070312 
	C572.206116,472.422546 571.157898,484.854889 569.816528,497.536316 
	C562.022827,497.536316 554.440552,497.536316 546.056641,497.536316 
	C546.928345,490.165497 547.778137,482.980042 548.700439,475.351807 
z"/>
<path fill="#EAA70E" opacity="1.000000" stroke="none" 
	d="
M899.996582,468.990417 
	C901.200928,470.922211 902.405212,472.854004 903.600952,474.772095 
	C905.683044,474.535309 907.552979,474.322632 909.422913,474.109985 
	C909.720825,474.539368 910.018799,474.968750 910.316711,475.398163 
	C908.813110,476.969299 907.309448,478.540466 905.371399,480.565552 
	C909.592163,481.721436 912.684631,479.171906 915.761780,477.318695 
	C918.127014,475.894257 920.116455,473.845856 922.619751,472.038208 
	C917.533630,477.357208 912.776733,483.752777 906.510437,487.826477 
	C896.963623,494.032867 885.916077,497.010864 873.449951,497.120483 
	C864.812439,497.269348 857.050476,497.459137 849.288513,497.648926 
	C847.095764,497.638031 844.902954,497.627106 842.170227,497.466431 
	C841.419495,497.230927 841.276733,497.295898 841.202026,497.511597 
	C837.277344,497.511597 833.352722,497.511597 828.718811,497.511597 
	C831.576477,471.930481 834.321106,447.361664 837.261780,422.402771 
	C837.963135,423.926849 838.827454,425.827820 838.898071,427.757904 
	C839.041443,431.673187 838.845703,435.609985 838.592651,439.525238 
	C838.513611,440.748779 837.802429,441.931458 837.286743,443.400238 
	C843.416687,444.579559 839.644897,450.310577 842.332275,454.443176 
	C842.765320,451.622009 843.045227,449.798584 843.390625,447.548126 
	C844.681152,448.013885 845.887024,448.449127 847.671997,449.093384 
	C848.154236,444.906372 848.492004,441.166412 849.039734,437.457428 
	C849.529358,434.141541 850.143066,431.097992 855.014099,432.675690 
	C856.473694,433.148468 858.559753,431.686981 860.798584,431.391296 
	C861.155090,432.115051 861.071777,432.559174 860.704712,433.275299 
	C859.283020,443.031250 857.950378,452.497528 857.087158,462.006378 
	C856.637085,466.964020 857.013977,471.996704 857.007507,476.996216 
	C856.997681,476.996948 857.012024,476.980927 857.077148,477.362640 
	C863.119812,480.555908 869.079102,481.461609 875.365356,477.393280 
	C876.834778,477.187653 877.931396,477.162476 879.081177,477.459778 
	C880.744690,477.686127 882.583496,478.061493 883.925415,477.411377 
	C889.365540,474.775787 894.652893,471.824951 899.996582,468.990417 
M837.201843,448.606903 
	C837.206177,448.213623 837.210449,447.820374 837.214783,447.427094 
	C837.051575,447.425690 836.746704,447.413269 836.745789,447.424500 
	C836.715393,447.815674 836.713623,448.209015 837.201843,448.606903 
z"/>
<path fill="#EAAC12" opacity="1.000000" stroke="none" 
	d="
M1039.173584,457.532196 
	C1037.890015,469.883423 1036.756226,481.791199 1035.375977,493.670319 
	C1035.212036,495.079956 1033.751099,497.439148 1032.805664,497.482300 
	C1025.714478,497.806030 1018.601868,497.658569 1010.794067,497.658569 
	C1011.687744,489.494873 1012.507446,481.971985 1013.335632,474.450012 
	C1015.244812,457.110321 1017.242920,439.779694 1018.992615,422.423920 
	C1019.312134,419.254028 1020.319763,418.104492 1023.536194,418.236389 
	C1028.680908,418.447357 1033.849976,418.401215 1038.994873,418.164459 
	C1042.653442,417.996094 1043.634766,419.498047 1043.212769,422.916077 
	C1041.808105,434.293793 1040.558472,445.690643 1039.173584,457.532196 
z"/>
<path fill="#6B6C70" opacity="1.000000" stroke="none" 
	d="
M789.827454,557.035522 
	C789.806213,559.475403 789.806213,561.462769 789.806213,563.357788 
	C781.672119,565.685303 779.461853,564.760559 776.019958,557.847961 
	C773.389832,552.565674 770.743042,547.291626 767.011292,542.200439 
	C766.569153,549.327820 766.127014,556.455261 765.666687,563.876587 
	C762.676453,563.876587 759.936035,563.876587 756.762085,563.876587 
	C757.292053,551.291626 757.820312,538.745483 758.348328,526.206787 
	C766.284912,523.926208 768.484680,524.785583 772.056824,531.779053 
	C774.805237,537.159546 777.437805,542.599182 781.199097,547.757446 
	C781.547791,540.568542 781.896484,533.379639 782.263428,525.813232 
	C785.176270,525.813232 788.051086,525.813232 791.576721,525.813232 
	C790.995972,536.154480 790.422302,546.368774 789.827454,557.035522 
z"/>
<path fill="#9D9D9D" opacity="1.000000" stroke="none" 
	d="
M1187.994507,546.490479 
	C1112.395874,546.517700 1037.296021,546.552673 962.196289,546.536072 
	C959.885132,546.535583 957.574097,545.999512 955.363281,545.117554 
	C960.341431,542.115234 1201.680054,542.719971 1204.325439,546.490540 
	C1199.048096,546.490540 1193.770752,546.490540 1187.994507,546.490479 
z"/>
<path fill="#6B6C70" opacity="1.000000" stroke="none" 
	d="
M840.421143,559.466309 
	C835.498169,563.459290 830.017761,564.394165 824.248474,564.371155 
	C819.476990,564.352173 814.705322,564.367310 810.533081,564.367310 
	C810.533081,551.170227 810.533081,538.595581 810.533081,526.049438 
	C818.646667,526.049438 826.053284,525.100891 833.114990,526.257751 
	C845.704224,528.320007 850.919800,543.478821 843.701843,555.269287 
	C842.841003,556.675476 841.696167,557.907898 840.421143,559.466309 
M836.657104,540.300293 
	C834.110535,533.668152 829.531677,531.762573 819.792419,533.638550 
	C819.792419,541.171204 819.792419,548.822266 819.792419,556.451843 
	C833.036682,557.713379 837.466187,553.647339 836.657104,540.300293 
z"/>
<path fill="#9D9D9D" opacity="1.000000" stroke="none" 
	d="
M551.999390,546.587891 
	C524.568970,546.590393 497.638519,546.590393 470.708069,546.590393 
	C470.638916,545.725098 470.569733,544.859741 470.500580,543.994446 
	C472.360016,543.725159 474.219269,543.221924 476.078918,543.220520 
	C531.028381,543.179565 585.977844,543.189270 640.927307,543.189087 
	C660.076416,543.188965 679.225464,543.177979 698.374573,543.191223 
	C700.111328,543.192444 701.847961,543.335571 703.584717,543.412781 
	C703.713562,544.038513 703.842407,544.664185 703.971313,545.289917 
	C702.434998,545.697693 700.902588,546.441284 699.361755,546.459106 
	C688.706360,546.582520 678.049255,546.570007 667.392700,546.572815 
	C629.094910,546.583069 590.797180,546.582153 551.999390,546.587891 
z"/>
<path fill="#6B6C70" opacity="1.000000" stroke="none" 
	d="
M918.238403,557.170288 
	C913.942749,556.687988 909.971313,556.370117 906.007141,556.443298 
	C904.953918,556.462769 903.519409,557.439514 902.946533,558.390381 
	C898.917358,565.078003 898.974670,565.112549 890.639648,563.625305 
	C894.648926,553.702271 898.614990,543.884949 902.582825,534.068237 
	C902.957458,533.141479 903.350098,532.221924 903.723022,531.294495 
	C905.980774,525.680237 910.142944,523.620056 915.996765,525.448181 
	C916.889160,525.726868 917.842102,526.816772 918.170898,527.743103 
	C922.391846,539.633423 926.504272,551.562256 930.655334,563.513306 
	C921.976562,565.586853 921.314026,565.241821 918.238403,557.170288 
M912.677124,538.954651 
	C912.266052,537.809998 911.854980,536.665344 911.080688,534.509155 
	C909.391602,539.631409 908.038086,543.735962 906.570862,548.185364 
	C909.831421,548.185364 912.468811,548.185364 915.537292,548.185364 
	C914.551819,544.998230 913.732361,542.348022 912.677124,538.954651 
z"/>
<path fill="#EBAF14" opacity="1.000000" stroke="none" 
	d="
M1045.414795,401.435303 
	C1040.442505,404.693695 1035.574097,407.172699 1029.720459,405.826904 
	C1021.466125,403.929199 1017.741943,396.064453 1021.447876,388.477814 
	C1025.383179,380.421539 1035.964844,376.136414 1044.433472,379.169556 
	C1050.771362,381.439514 1053.487183,388.664764 1050.214233,395.334839 
	C1049.147339,397.509125 1047.222900,399.262604 1045.414795,401.435303 
z"/>
<path fill="#737476" opacity="1.000000" stroke="none" 
	d="
M1086.417847,624.464050 
	C1084.815918,624.708923 1083.522705,624.708923 1081.604004,624.708923 
	C1082.152466,620.004883 1082.808716,615.603333 1083.100342,611.177795 
	C1083.196411,609.720337 1082.349121,608.200684 1081.933228,606.709473 
	C1080.147705,607.261292 1077.252686,607.338928 1076.777466,608.450867 
	C1075.126587,612.312988 1073.879517,616.474854 1073.313965,620.636169 
	C1072.805542,624.377869 1071.510132,625.727478 1067.266846,624.334351 
	C1067.773926,620.253113 1068.502930,616.042297 1068.722778,611.805054 
	C1068.811157,610.097778 1067.784180,608.332642 1067.264893,606.593811 
	C1065.312988,607.553528 1062.585815,608.022400 1061.593750,609.589661 
	C1060.161743,611.851685 1059.876831,614.887695 1059.314941,617.636841 
	C1058.886230,619.734436 1058.787476,621.899414 1058.489868,624.489014 
	C1056.839355,624.619080 1055.291382,624.741089 1052.796265,624.937683 
	C1053.768066,617.529175 1054.599854,610.673523 1055.665649,603.854431 
	C1055.772217,603.171753 1057.616455,602.026123 1058.115234,602.257446 
	C1061.562866,603.856873 1064.678345,601.885376 1067.913818,601.800232 
	C1070.348755,601.736267 1072.821777,603.126282 1075.738892,604.008423 
	C1076.482544,603.623779 1077.729492,602.761353 1079.110352,602.301392 
	C1085.879272,600.046570 1089.572388,602.843384 1088.900757,609.943481 
	C1088.448120,614.727783 1087.469727,619.462402 1086.417847,624.464050 
z"/>
<path fill="#737476" opacity="1.000000" stroke="none" 
	d="
M805.539185,624.730469 
	C801.129395,624.783203 797.163269,624.783203 792.420166,624.783203 
	C793.771545,614.260498 794.995667,604.261108 796.454407,594.296143 
	C796.566101,593.533386 798.289185,592.581909 799.344482,592.467346 
	C801.812744,592.199524 804.335449,592.285339 806.827148,592.409180 
	C815.572632,592.843323 820.823486,596.541748 821.808716,602.856384 
	C823.293579,612.372925 818.953491,620.579712 810.821838,623.479126 
	C809.264343,624.034363 807.598633,624.286011 805.539185,624.730469 
M810.520752,618.332520 
	C815.933105,613.805969 817.837158,606.581482 814.973694,601.437378 
	C812.665833,597.291382 807.377625,595.910461 801.336060,597.897949 
	C800.476868,605.100769 799.616089,612.317261 798.605652,620.787781 
	C802.920471,620.000061 806.381104,619.368286 810.520752,618.332520 
z"/>
<path fill="#6F7074" opacity="1.000000" stroke="none" 
	d="
M774.602722,620.654663 
	C773.455383,622.295593 771.656433,624.726379 771.349365,624.550598 
	C768.644287,623.002380 766.380920,624.176025 763.802490,624.814514 
	C760.298889,625.682251 756.778992,625.240356 754.532837,621.746521 
	C752.222534,618.152832 752.938354,610.946777 755.934937,607.114746 
	C759.306030,602.803772 763.663574,601.372437 771.390076,602.364014 
	C772.010986,598.561462 772.638550,594.717957 773.333984,590.459045 
	C774.897583,590.388062 776.447449,590.317688 778.490051,590.224976 
	C777.164185,600.567871 775.903503,610.401855 774.602722,620.654663 
M759.161926,617.858154 
	C762.602905,621.757446 766.707520,621.426270 768.907227,616.892212 
	C769.682434,615.294434 770.149780,613.369751 770.116089,611.606628 
	C770.081970,609.823181 769.488403,606.675415 768.727783,606.545898 
	C766.678406,606.197021 763.352417,606.409546 762.449524,607.719910 
	C760.619629,610.375366 760.054871,613.902588 759.161926,617.858154 
z"/>
<path fill="#737476" opacity="1.000000" stroke="none" 
	d="
M967.411987,619.229065 
	C967.834656,621.179504 968.143677,622.745361 968.456055,624.327820 
	C963.100769,625.110657 963.100769,625.110657 960.564941,616.008972 
	C957.477417,616.008972 954.050110,615.415710 950.997437,616.228943 
	C949.133423,616.725525 947.485657,619.180664 946.383789,621.121277 
	C944.742859,624.010986 943.038635,625.858093 938.934875,624.156982 
	C944.055237,614.097351 948.961548,604.176514 954.239807,594.457703 
	C954.873169,593.291748 957.529663,592.800354 959.241089,592.815857 
	C960.151733,592.824036 961.578186,594.455505 961.862671,595.583618 
	C963.809387,603.303284 965.515015,611.083679 967.411987,619.229065 
M952.556702,607.940735 
	C952.129761,608.933289 951.702759,609.925842 951.135925,611.243408 
	C954.181519,611.243408 956.712891,611.243408 959.632385,611.243408 
	C958.910889,606.924622 958.254822,602.997742 957.369019,597.695740 
	C955.500427,601.698425 954.197266,604.489929 952.556702,607.940735 
z"/>
<path fill="#6F7074" opacity="1.000000" stroke="none" 
	d="
M738.891479,529.290405 
	C738.326965,541.009216 737.767883,552.264832 737.190247,563.895203 
	C734.085266,563.895203 731.235901,563.895203 728.158142,563.895203 
	C728.686646,551.147705 729.206909,538.598511 729.765076,525.135925 
	C732.815247,527.130005 737.865906,521.418518 738.891479,529.290405 
z"/>
<path fill="#6B6C70" opacity="1.000000" stroke="none" 
	d="
M864.299011,554.080078 
	C864.807678,544.528625 865.289124,535.435547 865.795654,525.868286 
	C868.520142,525.868286 871.359314,525.868286 874.198975,525.868286 
	C874.198975,532.218140 874.359131,538.604736 874.153687,544.979431 
	C873.951233,551.257019 873.378357,557.522644 872.948242,564.095703 
	C870.046631,564.095703 867.303345,564.095703 863.834290,564.095703 
	C863.977112,560.975952 864.124451,557.757263 864.299011,554.080078 
z"/>
<path fill="#0F3A70" opacity="1.000000" stroke="none" 
	d="
M537.459595,400.773743 
	C538.545532,400.120972 540.060364,399.199585 541.642273,399.064819 
	C546.878174,398.618927 552.138245,398.456757 557.577148,398.176056 
	C558.252686,393.213776 558.828857,388.981812 559.457642,384.362823 
	C557.995544,384.229279 556.747314,384.016724 555.498962,384.015808 
	C529.336060,383.996582 503.172668,384.078003 477.010712,383.918579 
	C473.093414,383.894714 471.712708,384.949097 471.896667,388.958801 
	C472.061798,392.558411 471.334991,396.198944 471.002869,400.250122 
	C470.318573,399.661865 468.975647,398.588440 469.057404,397.637451 
	C469.496521,392.530060 470.290131,387.453186 471.000000,382.072357 
	C500.943970,382.072357 530.807129,382.072357 561.481812,382.072357 
	C560.747742,388.232941 560.024658,394.301239 559.242493,400.865417 
	C552.107788,400.865417 545.013489,400.865417 537.459595,400.773743 
z"/>
<path fill="#737476" opacity="1.000000" stroke="none" 
	d="
M1021.955688,603.057190 
	C1017.426819,611.511719 1013.114319,620.094116 1008.240784,628.345215 
	C1006.722168,630.916260 1003.842773,632.824036 1001.265198,634.558228 
	C1000.273926,635.225037 998.388367,634.562500 996.910217,634.505615 
	C997.565796,633.111694 998.096191,631.635986 998.931152,630.359436 
	C999.331665,629.746887 1000.362183,629.582764 1001.014771,629.092346 
	C1004.167236,626.722778 1005.910156,624.140320 1004.219360,619.776306 
	C1002.139893,614.409302 1000.812134,608.751160 999.102722,603.029053 
	C1002.834106,601.580627 1004.979736,602.010681 1005.818420,606.102051 
	C1006.571960,609.777893 1007.890686,613.337952 1009.173462,617.669495 
	C1011.396301,613.198792 1013.528503,609.612854 1014.984863,605.770813 
	C1016.276855,602.362854 1018.330383,601.559021 1021.774658,602.755005 
	C1022.024780,603.083557 1021.955750,603.057190 1021.955688,603.057190 
z"/>
<path fill="#6F7074" opacity="1.000000" stroke="none" 
	d="
M987.818481,619.406372 
	C988.234619,616.354309 988.829468,613.729004 988.875977,611.094055 
	C988.901672,609.634338 988.183228,607.017273 987.498779,606.913696 
	C985.768066,606.651733 982.965820,606.920410 982.218140,608.051208 
	C980.563293,610.553894 979.694031,613.660400 978.908142,616.627502 
	C978.240967,619.146179 978.140015,621.814880 977.762817,624.607178 
	C976.017700,624.607178 974.578064,624.607178 972.433289,624.607178 
	C973.362854,617.347595 974.280090,610.184753 975.186890,603.103027 
	C980.003784,602.614746 984.611084,601.841980 989.228943,601.773132 
	C993.168762,601.714417 995.496826,604.199463 995.070679,608.210632 
	C994.496338,613.616882 993.464417,618.974426 992.593872,624.578735 
	C990.902405,624.669922 989.465149,624.747437 987.397156,624.858887 
	C987.536072,622.975647 987.652039,621.402344 987.818481,619.406372 
z"/>
<path fill="#737476" opacity="1.000000" stroke="none" 
	d="
M592.029053,611.383911 
	C591.455200,615.927673 590.949585,620.029663 590.447205,624.104919 
	C585.511292,624.442688 580.792969,624.993713 576.071899,625.018127 
	C572.117981,625.038635 570.463867,622.349487 570.790710,618.686890 
	C571.203186,614.065369 571.672791,609.403076 572.762634,604.914978 
	C573.100586,603.523254 575.538818,602.641602 577.015564,601.526428 
	C577.446411,601.932678 577.877197,602.338928 578.308044,602.745178 
	C577.800354,606.972046 577.118347,611.188965 576.875427,615.431091 
	C576.785156,617.007996 577.723145,618.643860 578.192261,620.252808 
	C580.105652,619.617859 583.163025,619.494995 583.719360,618.252380 
	C585.431702,614.427795 586.380432,610.216003 587.259216,606.076721 
	C588.084412,602.190247 587.879089,602.146667 592.888306,602.731506 
	C592.626526,605.448303 592.361816,608.195190 592.029053,611.383911 
z"/>
<path fill="#6F7074" opacity="1.000000" stroke="none" 
	d="
M688.351868,604.224854 
	C687.429443,611.184937 686.553467,617.758240 685.697815,624.179565 
	C680.936890,624.547546 676.502869,625.075989 672.059021,625.179016 
	C668.010254,625.272766 665.787781,623.039917 666.163208,618.904968 
	C666.599426,614.100281 667.034790,609.258606 668.085510,604.570740 
	C668.375793,603.275757 670.855957,602.471558 672.331421,601.442200 
	C672.774414,601.799866 673.217407,602.157532 673.660339,602.515198 
	C673.125854,606.721191 672.383301,610.916016 672.157654,615.138489 
	C672.065430,616.865540 673.091553,618.652222 673.608887,620.411804 
	C675.606995,619.598572 678.796021,619.279724 679.377869,617.878418 
	C681.059204,613.828613 681.730774,609.352112 682.722168,605.025635 
	C683.502258,601.621277 685.235962,601.234558 688.351868,604.224854 
z"/>
<path fill="#6B6C70" opacity="1.000000" stroke="none" 
	d="
M554.685242,601.925903 
	C559.827942,601.518860 564.144104,602.102478 566.078369,607.365540 
	C567.936401,612.421143 566.153809,619.030640 562.104309,622.355591 
	C558.245056,625.524353 551.366272,626.186279 547.583740,623.752930 
	C542.420715,620.431519 542.156067,610.388306 547.413513,605.647705 
	C549.289734,603.955933 551.984009,603.171326 554.685242,601.925903 
M555.969910,620.728394 
	C560.191467,618.651428 561.037476,614.820007 560.887451,610.690857 
	C560.762634,607.258423 558.687622,605.611572 555.249573,606.058777 
	C551.820618,606.504761 549.082031,610.755615 549.310913,615.242920 
	C549.498535,618.919800 551.133118,621.220764 555.969910,620.728394 
z"/>
<path fill="#6F7074" opacity="1.000000" stroke="none" 
	d="
M888.454224,620.675232 
	C891.458313,620.509155 894.075500,620.251770 898.270447,619.839294 
	C896.869629,621.808228 896.203796,623.822754 894.918335,624.363220 
	C889.511047,626.636414 882.746948,625.006531 880.384094,621.282593 
	C878.057495,617.615784 878.900696,609.093384 882.771667,606.003967 
	C885.446655,603.869019 889.137390,602.591309 892.566650,601.933044 
	C896.040405,601.266357 899.419739,602.711609 900.119141,606.753601 
	C900.788574,610.622437 898.340210,613.167786 894.994629,614.332947 
	C891.901001,615.410339 888.544800,615.733582 884.113098,616.629822 
	C885.661926,618.178711 886.864563,619.381348 888.454224,620.675232 
M889.219910,606.286316 
	C887.739380,607.844421 886.258911,609.402588 884.778442,610.960693 
	C885.015381,611.364990 885.252258,611.769287 885.489197,612.173584 
	C887.203796,611.992004 889.090332,612.194092 890.585876,611.523743 
	C892.166260,610.815308 893.374084,609.275574 894.744629,608.098938 
	C893.148254,607.402588 891.551819,606.706177 889.219910,606.286316 
z"/>
<path fill="#6B6C70" opacity="1.000000" stroke="none" 
	d="
M742.935425,601.817383 
	C747.235229,601.977295 750.290100,603.478699 750.559448,607.776550 
	C750.832397,612.132324 747.368164,613.785828 744.019592,614.825439 
	C741.241272,615.687988 738.212036,615.742493 735.272644,616.158020 
	C736.813477,621.404175 739.205200,622.153198 746.939087,619.831848 
	C748.603333,622.748169 746.943420,623.895996 744.442810,624.650146 
	C737.527344,626.735779 731.681030,624.792419 729.967590,619.833862 
	C727.710754,613.302734 731.635681,604.982544 738.181274,602.634399 
	C739.562927,602.138794 741.098389,602.072021 742.935425,601.817383 
M738.509155,611.852844 
	C739.167297,611.774109 739.939819,611.889038 740.462219,611.580627 
	C742.049316,610.643311 743.563049,609.571289 744.994568,608.414612 
	C745.061768,608.360352 743.965820,606.288696 743.574829,606.342468 
	C741.575256,606.617676 739.404175,606.921387 737.751892,607.951172 
	C736.813721,608.535950 733.831787,610.549866 738.509155,611.852844 
z"/>
<path fill="#6B6C70" opacity="1.000000" stroke="none" 
	d="
M1112.556885,612.589050 
	C1108.117676,614.220642 1103.949219,615.602295 1099.732422,617.000061 
	C1100.769531,621.222778 1103.136475,621.963806 1111.727539,619.895447 
	C1111.389526,621.348633 1111.208618,623.472229 1110.840088,623.505310 
	C1106.504150,623.894348 1102.032471,624.626038 1097.814819,623.935303 
	C1093.953979,623.303040 1093.413208,619.385742 1093.433838,615.907959 
	C1093.481689,607.806335 1099.470947,601.748840 1107.193359,601.906006 
	C1113.746704,602.039368 1116.150146,606.489746 1112.556885,612.589050 
M1104.849731,611.674561 
	C1106.179688,610.451904 1107.509766,609.229187 1108.839722,608.006531 
	C1107.710938,607.311157 1106.138672,605.759399 1105.532471,606.073242 
	C1103.277222,607.241394 1101.339355,609.022522 1099.282227,610.573547 
	C1099.599243,611.044739 1099.916260,611.515930 1100.233276,611.987122 
	C1101.505371,611.923523 1102.777588,611.859924 1104.849731,611.674561 
z"/>
<path fill="#6F7074" opacity="1.000000" stroke="none" 
	d="
M631.747925,597.238708 
	C629.656372,597.065735 628.015137,596.921143 626.373840,596.776489 
	C626.046875,596.388672 625.719849,596.000793 625.392822,595.612976 
	C626.575317,594.615967 627.726318,592.803406 628.945374,592.756409 
	C636.054565,592.482178 643.179688,592.622009 650.372742,592.622009 
	C651.621704,596.612366 649.482117,597.395447 646.649536,596.899658 
	C641.388733,595.978699 640.242554,598.620239 639.906494,603.206421 
	C639.387268,610.291687 638.226685,617.329895 637.311646,624.598328 
	C635.449036,624.598328 633.851257,624.598328 631.519165,624.598328 
	C632.176025,619.361206 632.816772,614.189270 633.476379,609.019836 
	C633.833313,606.222717 634.489868,603.427673 634.467224,600.636047 
	C634.458130,599.506958 632.998047,598.389648 631.747925,597.238708 
z"/>
<path fill="#6F7074" opacity="1.000000" stroke="none" 
	d="
M541.011536,602.052368 
	C537.840759,609.291443 534.669922,616.530579 531.499146,623.769653 
	C531.910522,624.011963 532.321899,624.254211 532.733215,624.496521 
	C531.155762,624.496521 529.578308,624.496521 526.630005,624.496521 
	C532.596619,612.430298 525.035339,603.318909 520.563904,593.292664 
	C524.795227,591.820679 527.234924,592.602844 528.589355,596.660583 
	C529.614258,599.730957 531.200989,602.613831 532.786072,606.131470 
	C535.022095,603.245178 536.886597,600.838379 539.324707,598.155823 
	C540.249146,597.226624 540.600037,596.573120 540.950928,595.919678 
	C540.950928,595.919678 540.996948,595.987671 541.303833,596.028809 
	C542.512634,596.766174 543.414490,597.462402 544.316345,598.158630 
	C543.720642,599.069824 543.124878,599.981018 542.000122,601.061890 
	C541.222778,601.451965 541.069641,601.725525 541.011536,602.052368 
z"/>
<path fill="#737476" opacity="1.000000" stroke="none" 
	d="
M862.408569,624.695007 
	C860.827148,621.491943 859.456421,618.380249 858.476318,615.150024 
	C857.279419,611.205627 856.410400,607.161804 855.277466,602.677551 
	C857.384399,602.677551 859.077332,602.677551 861.042664,602.677551 
	C862.112244,606.856628 863.206787,611.133240 864.301270,615.409851 
	C864.728271,615.538208 865.155273,615.666565 865.582275,615.794922 
	C867.319092,612.613831 869.390198,609.563904 870.703186,606.216553 
	C872.156921,602.510437 874.386902,601.521484 878.552063,602.721130 
	C874.693542,609.773743 871.091003,616.637695 867.132935,623.290100 
	C866.543152,624.281311 864.280884,624.277405 862.408569,624.695007 
z"/>
<path fill="#6F7074" opacity="1.000000" stroke="none" 
	d="
M1022.354858,603.270386 
	C1021.955750,603.057190 1022.024780,603.083557 1022.016052,603.106934 
	C1024.979126,602.180969 1028.707642,602.341553 1028.745483,597.516968 
	C1028.751709,596.732239 1031.384766,595.968079 1033.454834,594.839355 
	C1033.454834,597.835938 1033.454834,599.748596 1033.454834,601.880859 
	C1035.044067,602.092529 1036.656128,602.307312 1038.375732,602.536377 
	C1040.153931,608.526245 1034.595337,605.741272 1032.386963,607.722534 
	C1032.115601,609.566223 1031.927002,611.883606 1031.411621,614.125916 
	C1030.431519,618.389587 1030.733154,621.584167 1036.958130,620.711792 
	C1037.022339,621.234802 1037.086548,621.757812 1037.150757,622.280823 
	C1035.799438,623.215027 1034.537964,624.739990 1033.078369,624.961609 
	C1029.958252,625.435303 1026.566650,625.580750 1025.353882,621.469299 
	C1025.215332,620.999756 1025.160522,620.468628 1025.218506,619.984192 
	C1025.594604,616.846008 1026.606934,613.639404 1026.231201,610.601135 
	C1025.924683,608.123108 1023.975037,605.848389 1022.354858,603.270386 
z"/>
<path fill="#6F7074" opacity="1.000000" stroke="none" 
	d="
M719.799927,616.198364 
	C718.862000,621.257263 722.577820,620.476196 725.016357,620.900879 
	C726.190369,625.225220 723.278015,625.031067 720.804443,625.094482 
	C717.710571,625.173767 714.365051,625.039429 714.155701,620.935547 
	C713.996704,617.819824 714.781494,614.667053 714.910217,611.521118 
	C714.986023,609.669189 716.472290,606.934692 712.737183,606.714172 
	C712.943970,605.253662 712.808533,603.616943 713.446167,602.378235 
	C714.203430,600.907410 715.566833,599.719788 716.775696,598.518188 
	C718.084045,597.217651 719.516907,596.042603 721.914673,593.903564 
	C721.914673,597.513000 721.914673,599.410828 721.914673,601.660217 
	C723.623230,601.992981 725.330444,602.325439 727.017578,602.654053 
	C727.476868,606.600830 727.476868,606.600830 721.065918,607.155396 
	C720.665466,609.929382 720.245422,612.838989 719.799927,616.198364 
z"/>
<path fill="#6F7074" opacity="1.000000" stroke="none" 
	d="
M706.462280,622.343811 
	C702.437073,626.075500 697.952454,625.688843 693.551208,624.575684 
	C692.482971,624.305542 691.818909,622.437256 690.224609,620.311218 
	C694.383911,620.704163 696.684265,621.149109 698.956726,621.035645 
	C700.018188,620.982666 701.330383,620.043091 701.919312,619.117493 
	C702.183533,618.702209 701.147461,617.090576 700.354675,616.452942 
	C698.947266,615.321106 697.150024,614.675232 695.737976,613.547913 
	C691.543945,610.199646 692.170898,604.774597 697.197693,602.951904 
	C699.724426,602.035706 702.687500,602.134705 705.455444,602.117249 
	C709.288208,602.092957 708.798889,604.164185 707.970215,605.723022 
	C704.399414,606.297791 701.636902,606.742432 698.874451,607.187134 
	C700.782227,609.123535 702.529968,611.259155 704.635010,612.949951 
	C707.846863,615.529785 708.793457,618.385437 706.462280,622.343811 
z"/>
<path fill="#737476" opacity="1.000000" stroke="none" 
	d="
M911.184143,610.583252 
	C910.136108,615.308777 909.280579,619.671753 908.349976,624.417603 
	C907.011597,624.417603 905.464539,624.417603 903.237427,624.417603 
	C904.106201,617.488220 904.925293,610.669312 905.876282,603.868958 
	C905.960022,603.269897 906.891296,602.347473 907.454590,602.328369 
	C911.420837,602.193970 915.393921,602.256897 919.730530,602.256897 
	C919.583557,603.707642 919.441650,605.108276 919.436401,605.160339 
	C916.117065,607.244385 913.746826,608.732544 911.184143,610.583252 
z"/>
<path fill="#737476" opacity="1.000000" stroke="none" 
	d="
M597.825928,615.388062 
	C598.316284,611.661194 598.587158,608.331848 599.303650,605.101501 
	C599.545837,604.009888 600.848511,602.430603 601.783997,602.344055 
	C605.316650,602.017395 608.897522,602.212891 612.810547,602.212891 
	C613.098938,604.539978 613.244446,606.072510 609.699585,607.175598 
	C607.213257,607.949280 604.919617,611.325562 603.821899,614.055176 
	C602.567932,617.173157 602.735107,620.862671 602.240356,624.643188 
	C600.508057,624.728699 598.925476,624.806885 596.739075,624.914856 
	C597.114624,621.637207 597.447632,618.730774 597.825928,615.388062 
z"/>
<path fill="#737476" opacity="1.000000" stroke="none" 
	d="
M831.601501,618.786377 
	C830.584534,625.017212 830.584534,625.017212 825.437378,624.258423 
	C826.270874,617.101440 827.106750,609.923523 827.926941,602.880615 
	C832.460754,602.880615 836.828430,602.880615 841.603455,602.880615 
	C841.561401,603.431824 841.455322,604.821167 841.324097,606.540161 
	C833.206543,606.596924 832.053345,612.187988 831.601501,618.786377 
z"/>
<path fill="#737476" opacity="1.000000" stroke="none" 
	d="
M654.287476,618.650269 
	C653.998779,620.858704 653.753662,622.642456 653.480713,624.629028 
	C651.752380,624.629028 650.310364,624.629028 648.266663,624.629028 
	C649.021790,617.666870 649.716553,610.788147 650.594299,603.932861 
	C650.677917,603.280090 651.885315,602.309692 652.606201,602.277527 
	C656.358582,602.110474 660.122375,602.199646 664.267212,602.199646 
	C664.120544,603.666565 663.980652,605.065796 663.847839,606.394043 
	C656.320679,607.947449 655.698608,608.738831 654.287476,618.650269 
z"/>
<path fill="#6B6C70" opacity="1.000000" stroke="none" 
	d="
M1042.376465,613.070068 
	C1042.859375,609.509155 1043.273315,606.388123 1043.763794,602.690125 
	C1045.335815,602.540710 1047.024780,602.380188 1049.465088,602.148254 
	C1048.542725,609.434143 1047.884033,616.162048 1046.658447,622.784973 
	C1046.458984,623.862366 1043.749756,624.475342 1041.025635,625.930603 
	C1041.569824,620.657837 1041.938843,617.083923 1042.376465,613.070068 
z"/>
<path fill="#737476" opacity="1.000000" stroke="none" 
	d="
M848.404846,623.450439 
	C846.836853,624.285583 845.384338,624.726135 842.888794,625.483032 
	C843.870667,617.392151 844.739258,610.234924 845.656433,602.677307 
	C847.556641,602.677307 849.230347,602.677307 851.401489,602.677307 
	C850.415344,609.652405 849.467834,616.354126 848.404846,623.450439 
z"/>
<path fill="#737476" opacity="1.000000" stroke="none" 
	d="
M916.171997,629.072998 
	C917.070862,626.800476 918.077271,624.869446 918.581543,622.815125 
	C919.440491,619.315613 921.612305,618.550110 925.760742,619.373840 
	C923.724915,623.167542 921.971375,626.718689 919.848389,630.033264 
	C919.582520,630.448425 917.366211,629.614319 916.171997,629.072998 
z"/>
<path fill="#0F3A70" opacity="1.000000" stroke="none" 
	d="
M473.456818,400.744873 
	C473.707794,399.790222 474.434021,398.168274 475.129303,398.181458 
	C481.831696,398.308380 488.531860,398.662811 495.224579,399.081848 
	C496.310303,399.149841 497.356232,399.853210 498.689423,400.526184 
	C490.611420,400.805054 482.264587,400.820648 473.456818,400.744873 
z"/>
<path fill="#737476" opacity="1.000000" stroke="none" 
	d="
M1116.693115,621.428589 
	C1118.510376,620.407227 1120.237061,619.543518 1122.060913,619.209534 
	C1122.406128,619.146362 1123.820435,621.455505 1123.530029,622.193054 
	C1123.086548,623.319580 1121.346558,624.930481 1120.589355,624.727112 
	C1119.113403,624.330566 1117.936890,622.819458 1116.693115,621.428589 
z"/>
<path fill="#737476" opacity="1.000000" stroke="none" 
	d="
M1047.259888,592.179932 
	C1048.849243,593.084290 1050.082031,594.074097 1051.314819,595.063904 
	C1050.361694,596.077820 1049.544434,597.675842 1048.416626,597.937805 
	C1047.336060,598.188965 1045.933228,597.053040 1044.671997,596.526672 
	C1045.415771,595.106201 1046.159546,593.685791 1047.259888,592.179932 
z"/>
<path fill="#9D9D9D" opacity="1.000000" stroke="none" 
	d="
M848.910400,598.294556 
	C847.792480,596.898254 847.014832,595.518127 846.237183,594.138000 
	C847.577454,593.404785 848.915039,592.125183 850.258789,592.118713 
	C851.256287,592.113892 852.261780,593.761658 853.263672,594.673218 
	C851.926025,595.885681 850.588379,597.098267 848.910400,598.294556 
z"/>
<path fill="#737476" opacity="1.000000" stroke="none" 
	d="
M544.587524,598.002441 
	C543.414490,597.462402 542.512634,596.766174 541.267090,596.010559 
	C541.723511,591.012451 545.332275,593.291138 549.219971,592.198059 
	C547.149048,594.880005 546.003845,596.363159 544.587524,598.002441 
z"/>
<path fill="#9D9D9D" opacity="1.000000" stroke="none" 
	d="
M849.708679,497.776123 
	C857.050476,497.459137 864.812439,497.269348 872.955566,497.158325 
	C865.600830,497.459167 857.864807,497.681213 849.708679,497.776123 
z"/>
<path fill="#737476" opacity="1.000000" stroke="none" 
	d="
M540.691895,596.029907 
	C540.600037,596.573120 540.249146,597.226624 539.603516,597.941895 
	C539.683533,597.382568 540.058228,596.761353 540.691895,596.029907 
z"/>
<path fill="#EAA70E" opacity="1.000000" stroke="none" 
	d="
M924.405273,470.228455 
	C924.352539,470.034515 924.532349,469.805115 924.836365,469.713257 
	C924.960632,469.850800 924.637817,470.192963 924.405273,470.228455 
z"/>
<path fill="#737476" opacity="1.000000" stroke="none" 
	d="
M541.147461,601.867126 
	C541.069641,601.725525 541.222778,601.451965 541.673462,601.107300 
	C541.657349,601.198242 541.459839,601.431213 541.147461,601.867126 
z"/>
<path fill="#EAA70E" opacity="1.000000" stroke="none" 
	d="
M923.405273,471.326538 
	C923.291626,471.084930 923.467224,470.711945 923.937866,470.218872 
	C924.053467,470.464203 923.873962,470.829651 923.405273,471.326538 
z"/>
<path fill="#9D9D9D" opacity="1.000000" stroke="none" 
	d="
M841.280029,497.610474 
	C841.276733,497.295898 841.419495,497.230927 841.703125,497.424927 
	C841.776062,497.533173 841.609680,497.723663 841.609680,497.723663 
	C841.609680,497.723663 841.358032,497.709381 841.280029,497.610474 
z"/>
<path fill="#ECB512" opacity="1.000000" stroke="none" 
	d="
M429.404633,489.308258 
	C429.243896,489.120331 429.326508,488.747925 429.617676,488.175659 
	C429.766815,488.358429 429.707397,488.741119 429.404633,489.308258 
z"/>
<path fill="#ECB512" opacity="1.000000" stroke="none" 
	d="
M430.063934,487.693054 
	C429.923248,487.676544 430.014587,487.501678 430.012665,487.456696 
	C430.010742,487.411713 430.289551,487.442627 430.289551,487.442627 
	C430.289551,487.442627 430.204620,487.709564 430.063934,487.693054 
z"/>
<path fill="#FAFBF8" opacity="1.000000" stroke="none" 
	d="
M418.990173,461.543060 
	C418.243896,467.165924 418.153412,472.602020 416.403076,477.437225 
	C412.698029,487.672211 409.501038,498.486542 403.658051,507.479462 
	C384.607574,536.800232 356.708923,551.614197 321.933044,553.721863 
	C320.938293,553.782166 319.948242,553.919739 318.534485,554.074158 
	C292.567566,553.878540 269.916412,545.637024 249.890213,529.793518 
	C214.823532,502.050873 202.918045,452.748352 222.512405,412.814880 
	C240.405243,376.349213 270.713257,358.242523 310.762817,355.519012 
	C311.919830,355.440338 313.077179,355.366913 314.619629,355.145813 
	C336.527557,355.817352 356.696869,361.126556 374.466614,373.690582 
	C403.546936,394.251617 419.073181,422.068909 418.890259,458.093109 
	C418.885193,459.090057 418.892426,460.087036 418.990173,461.543060 
M314.790619,376.827728 
	C271.258026,375.691193 237.516983,412.604340 236.267807,444.905090 
	C237.911942,444.905090 239.539322,444.935394 241.165283,444.900330 
	C254.964859,444.602936 268.055542,441.338776 280.888763,436.289886 
	C287.306519,433.765015 294.230133,432.347900 301.045105,431.070892 
	C305.911194,430.159027 310.977325,430.314575 316.816986,430.093628 
	C328.643433,430.693512 340.208252,431.924072 351.399841,436.682251 
	C359.424805,440.094177 368.159821,442.058807 376.749786,443.841980 
	C382.618561,445.060303 388.783173,444.853638 395.461548,445.330139 
	C395.028961,442.036987 394.902740,439.898987 394.451355,437.831970 
	C391.618591,424.858856 385.648010,413.411011 376.702454,403.693085 
	C360.313660,385.889313 340.250793,376.182037 314.790619,376.827728 
M359.642517,471.052673 
	C347.960846,474.343597 338.572083,480.918518 336.395935,493.225922 
	C334.269958,505.249542 334.368408,517.666931 333.525452,529.913818 
	C333.510651,530.128784 333.937439,530.374084 334.168732,530.595154 
	C361.413330,528.570801 397.475159,491.108887 394.995850,466.881073 
	C392.095337,466.881073 389.113495,466.636841 386.188690,466.941101 
	C382.281647,467.347504 380.296539,466.411194 380.539398,461.952698 
	C380.773743,457.650421 380.423523,453.300446 380.065613,448.993378 
	C379.980408,447.967957 378.841309,447.030121 378.187042,446.052032 
	C377.402893,447.071350 376.038269,448.039459 375.942902,449.119568 
	C375.651215,452.423920 375.891235,455.771912 375.845398,459.101837 
	C375.714020,468.648804 377.044098,467.345306 367.711090,469.155182 
	C365.264954,469.629547 362.855286,470.291931 359.642517,471.052673 
M256.036163,463.314697 
	C256.036163,457.688721 256.036163,452.062714 256.036163,446.470001 
	C251.349503,446.244202 251.283463,446.243500 251.243790,449.982208 
	C251.184296,455.589417 251.228333,461.197693 251.228333,467.203308 
	C246.002197,466.934692 241.174408,466.686554 236.185669,466.430145 
	C242.682373,501.461060 271.794189,525.895020 299.957947,530.280823 
	C298.997528,518.986145 298.540588,507.871338 296.994598,496.910156 
	C295.134796,483.724426 286.767303,475.666443 274.284119,471.856171 
	C269.211334,470.307770 264.005127,469.040741 258.768524,468.245453 
	C255.826843,467.798706 255.736954,466.412567 256.036163,463.314697 
M307.716583,446.067108 
	C298.696442,450.795380 294.611572,458.840027 297.045319,467.716614 
	C299.171448,475.471436 304.505859,480.272461 312.241638,481.909607 
	C320.194214,483.592651 327.213257,481.308838 332.182373,474.710480 
	C336.863831,468.494080 337.488190,461.569916 333.958923,454.512665 
	C329.762421,446.121246 319.604462,442.687653 307.716583,446.067108 
M306.767365,511.089478 
	C314.044769,511.089478 321.322174,511.089478 328.599609,511.089478 
	C328.898651,510.697662 329.197693,510.305847 329.496765,509.914001 
	C328.470978,508.813171 327.482788,506.803162 326.413300,506.758972 
	C319.462219,506.471558 312.493439,506.611481 304.771057,506.611481 
	C305.200958,508.399994 305.509979,509.685669 306.767365,511.089478 
z"/>
<path fill="#FEFDF6" opacity="1.000000" stroke="none" 
	d="
M860.988464,433.003265 
	C861.071777,432.559174 861.155090,432.115051 861.168579,431.336639 
	C861.098877,431.002319 861.258667,430.728699 861.490112,430.437012 
	C861.800110,429.764221 861.878662,429.383087 862.001709,428.568970 
	C862.845642,423.117493 863.701965,418.107269 864.433472,413.078857 
	C866.201233,400.927002 866.193726,400.735382 878.549561,401.790558 
	C889.153870,402.696167 899.059387,405.822083 905.068726,415.392181 
	C915.055786,431.296844 909.926819,461.790070 891.782532,471.650513 
	C887.733093,473.851166 883.289917,475.327484 879.028015,477.137329 
	C877.931396,477.162476 876.834778,477.187653 874.968140,477.288391 
	C868.469360,477.236298 862.740723,477.108612 857.012024,476.980927 
	C857.012024,476.980927 856.997681,476.996948 857.093384,476.588593 
	C858.455566,461.787903 859.721985,447.395599 860.988464,433.003265 
z"/>
<path fill="#EBAF14" opacity="1.000000" stroke="none" 
	d="
M879.081177,477.459778 
	C883.289917,475.327484 887.733093,473.851166 891.782532,471.650513 
	C909.926819,461.790070 915.055786,431.296844 905.068726,415.392181 
	C899.059387,405.822083 889.153870,402.696167 878.549561,401.790558 
	C866.193726,400.735382 866.201233,400.927002 864.433472,413.078857 
	C863.701965,418.107269 862.845642,423.117493 861.764099,428.567688 
	C861.482056,428.999420 861.006775,428.995483 861.006775,428.995483 
	C861.004395,427.931641 861.002014,426.867798 860.893311,425.183411 
	C860.589172,424.287445 860.329712,424.095337 860.008606,423.986542 
	C860.007385,423.242004 860.006104,422.497467 860.276123,421.146698 
	C860.700806,419.361816 860.854065,418.183197 861.007324,417.004547 
	C862.006653,412.558075 862.834045,408.061615 864.105103,403.694183 
	C864.511841,402.296539 866.037903,400.244171 867.145386,400.182983 
	C877.937927,399.586487 888.697571,399.695343 898.342041,405.693756 
	C906.542847,410.794220 910.946716,418.597321 911.835571,427.824280 
	C912.958740,439.484619 911.883179,451.042786 905.139893,461.921570 
	C904.992676,462.659027 904.990234,462.825836 904.987793,462.992676 
	C903.413391,464.789612 901.838989,466.586548 900.130615,468.686951 
	C894.652893,471.824951 889.365540,474.775787 883.925415,477.411377 
	C882.583496,478.061493 880.744690,477.686127 879.081177,477.459778 
z"/>
<path fill="#EAA70E" opacity="1.000000" stroke="none" 
	d="
M904.984497,463.391083 
	C904.990234,462.825836 904.992676,462.659027 904.998779,462.241821 
	C907.978271,463.036987 908.148315,466.081909 904.389343,469.693176 
	C904.586609,467.725281 904.783936,465.757385 904.984497,463.391083 
z"/>
<path fill="#EAA70E" opacity="1.000000" stroke="none" 
	d="
M860.664856,417.058746 
	C860.854065,418.183197 860.700806,419.361816 860.276978,420.774414 
	C860.111755,419.709900 860.217041,418.411407 860.664856,417.058746 
z"/>
<path fill="#EAA70E" opacity="1.000000" stroke="none" 
	d="
M861.033875,429.355286 
	C861.006775,428.995483 861.482056,428.999420 861.719604,429.000671 
	C861.878662,429.383087 861.800110,429.764221 861.435303,430.288361 
	C861.119751,430.192627 861.090393,429.953857 861.033875,429.355286 
z"/>
<path fill="#EAA70E" opacity="1.000000" stroke="none" 
	d="
M860.112427,424.209290 
	C860.329712,424.095337 860.589172,424.287445 860.892212,424.784485 
	C860.674377,424.900208 860.413879,424.708862 860.112427,424.209290 
z"/>
<path fill="#FEFDF6" opacity="1.000000" stroke="none" 
	d="
M1191.836670,440.081604 
	C1190.415161,442.781555 1189.546387,446.033386 1187.480591,447.246338 
	C1179.844482,451.730011 1171.328613,452.152069 1162.643799,451.542847 
	C1163.716309,439.763580 1172.358398,432.227478 1183.358765,432.886566 
	C1187.839600,433.155060 1190.933716,435.034668 1191.836670,440.081604 
z"/>
<path fill="#0F3A70" opacity="1.000000" stroke="none" 
	d="
M474.724762,396.878967 
	C474.251099,396.779144 474.002716,396.639221 473.754333,396.499298 
	C474.002380,396.359802 474.314026,396.056488 474.482574,396.121857 
	C474.698639,396.205688 474.799561,396.586212 474.724762,396.878967 
z"/>
<path fill="#EBAF14" opacity="1.000000" stroke="none" 
	d="
M860.704712,433.275299 
	C859.721985,447.395599 858.455566,461.787903 857.103210,476.587891 
	C857.013977,471.996704 856.637085,466.964020 857.087158,462.006378 
	C857.950378,452.497528 859.283020,443.031250 860.704712,433.275299 
z"/>
<path fill="#EBAF14" opacity="1.000000" stroke="none" 
	d="
M857.077148,477.362640 
	C862.740723,477.108612 868.469360,477.236298 874.595337,477.468872 
	C869.079102,481.461609 863.119812,480.555908 857.077148,477.362640 
z"/>
<path fill="#EBAD0F" opacity="1.000000" stroke="none" 
	d="
M836.954834,448.604492 
	C836.713623,448.209015 836.715393,447.815674 836.745789,447.424500 
	C836.746704,447.413269 837.051575,447.425690 837.214722,447.427094 
	C837.210449,447.820374 837.206177,448.213623 836.954834,448.604492 
z"/>
<path fill="#FAFBF8" opacity="1.000000" stroke="none" 
	d="
M836.742615,540.704224 
	C837.466187,553.647339 833.036682,557.713379 819.792419,556.451843 
	C819.792419,548.822266 819.792419,541.171204 819.792419,533.638550 
	C829.531677,531.762573 834.110535,533.668152 836.742615,540.704224 
z"/>
<path fill="#FAFBF8" opacity="1.000000" stroke="none" 
	d="
M912.795044,539.326233 
	C913.732361,542.348022 914.551819,544.998230 915.537292,548.185364 
	C912.468811,548.185364 909.831421,548.185364 906.570862,548.185364 
	C908.038086,543.735962 909.391602,539.631409 911.080688,534.509155 
	C911.854980,536.665344 912.266052,537.809998 912.795044,539.326233 
z"/>
<path fill="#FAFBF8" opacity="1.000000" stroke="none" 
	d="
M810.181274,618.534546 
	C806.381104,619.368286 802.920471,620.000061 798.605652,620.787781 
	C799.616089,612.317261 800.476868,605.100769 801.336060,597.897949 
	C807.377625,595.910461 812.665833,597.291382 814.973694,601.437378 
	C817.837158,606.581482 815.933105,613.805969 810.181274,618.534546 
z"/>
<path fill="#FAFBF8" opacity="1.000000" stroke="none" 
	d="
M759.065186,617.464294 
	C760.054871,613.902588 760.619629,610.375366 762.449524,607.719910 
	C763.352417,606.409546 766.678406,606.197021 768.727783,606.545898 
	C769.488403,606.675415 770.081970,609.823181 770.116089,611.606628 
	C770.149780,613.369751 769.682434,615.294434 768.907227,616.892212 
	C766.707520,621.426270 762.602905,621.757446 759.065186,617.464294 
z"/>
<path fill="#FAFBF8" opacity="1.000000" stroke="none" 
	d="
M952.725342,607.611084 
	C954.197266,604.489929 955.500427,601.698425 957.369019,597.695740 
	C958.254822,602.997742 958.910889,606.924622 959.632385,611.243408 
	C956.712891,611.243408 954.181519,611.243408 951.135925,611.243408 
	C951.702759,609.925842 952.129761,608.933289 952.725342,607.611084 
z"/>
<path fill="#FAFBF8" opacity="1.000000" stroke="none" 
	d="
M555.592529,620.812500 
	C551.133118,621.220764 549.498535,618.919800 549.310913,615.242920 
	C549.082031,610.755615 551.820618,606.504761 555.249573,606.058777 
	C558.687622,605.611572 560.762634,607.258423 560.887451,610.690857 
	C561.037476,614.820007 560.191467,618.651428 555.592529,620.812500 
z"/>
<path fill="#FAFBF8" opacity="1.000000" stroke="none" 
	d="
M889.587646,606.148071 
	C891.551819,606.706177 893.148254,607.402588 894.744629,608.098938 
	C893.374084,609.275574 892.166260,610.815308 890.585876,611.523743 
	C889.090332,612.194092 887.203796,611.992004 885.489197,612.173584 
	C885.252258,611.769287 885.015381,611.364990 884.778442,610.960693 
	C886.258911,609.402588 887.739380,607.844421 889.587646,606.148071 
z"/>
<path fill="#FAFBF8" opacity="1.000000" stroke="none" 
	d="
M738.098877,611.869019 
	C733.831787,610.549866 736.813721,608.535950 737.751892,607.951172 
	C739.404175,606.921387 741.575256,606.617676 743.574829,606.342468 
	C743.965820,606.288696 745.061768,608.360352 744.994568,608.414612 
	C743.563049,609.571289 742.049316,610.643311 740.462219,611.580627 
	C739.939819,611.889038 739.167297,611.774109 738.098877,611.869019 
z"/>
<path fill="#FAFBF8" opacity="1.000000" stroke="none" 
	d="
M1104.449707,611.735474 
	C1102.777588,611.859924 1101.505371,611.923523 1100.233276,611.987122 
	C1099.916260,611.515930 1099.599243,611.044739 1099.282227,610.573547 
	C1101.339355,609.022522 1103.277222,607.241394 1105.532471,606.073242 
	C1106.138672,605.759399 1107.710938,607.311157 1108.839722,608.006531 
	C1107.509766,609.229187 1106.179688,610.451904 1104.449707,611.735474 
z"/>
<path fill="#0F3B70" opacity="1.000000" stroke="none" 
	d="
M315.954193,429.993835 
	C310.977325,430.314575 305.911194,430.159027 301.045105,431.070892 
	C294.230133,432.347900 287.306519,433.765015 280.888763,436.289886 
	C268.055542,441.338776 254.964859,444.602936 241.165283,444.900330 
	C239.539322,444.935394 237.911942,444.905090 236.267807,444.905090 
	C237.516983,412.604340 271.258026,375.691193 315.185455,377.434875 
	C315.704926,395.359314 315.829559,412.676575 315.954193,429.993835 
z"/>
<path fill="#ECB512" opacity="1.000000" stroke="none" 
	d="
M316.385590,430.043732 
	C315.829559,412.676575 315.704926,395.359314 315.606934,377.578247 
	C340.250793,376.182037 360.313660,385.889313 376.702454,403.693085 
	C385.648010,413.411011 391.618591,424.858856 394.451355,437.831970 
	C394.902740,439.898987 395.028961,442.036987 395.461548,445.330139 
	C388.783173,444.853638 382.618561,445.060303 376.749786,443.841980 
	C368.159821,442.058807 359.424805,440.094177 351.399841,436.682251 
	C340.208252,431.924072 328.643433,430.693512 316.385590,430.043732 
z"/>
<path fill="#EAAC12" opacity="1.000000" stroke="none" 
	d="
M360.035706,470.960327 
	C362.855286,470.291931 365.264954,469.629547 367.711090,469.155182 
	C377.044098,467.345306 375.714020,468.648804 375.845398,459.101837 
	C375.891235,455.771912 375.651215,452.423920 375.942902,449.119568 
	C376.038269,448.039459 377.402893,447.071350 378.187012,446.052002 
	C378.841309,447.030121 379.980408,447.967957 380.065613,448.993378 
	C380.423523,453.300446 380.773743,457.650421 380.539398,461.952698 
	C380.296539,466.411194 382.281647,467.347504 386.188690,466.941101 
	C389.113495,466.636841 392.095337,466.881073 394.995850,466.881073 
	C397.475159,491.108887 361.413330,528.570801 334.163452,530.600220 
	C333.937439,530.374084 333.510651,530.128784 333.525452,529.913818 
	C334.368408,517.666931 334.269958,505.249542 336.395935,493.225922 
	C338.572083,480.918518 347.960846,474.343597 360.035706,470.960327 
z"/>
<path fill="#103B71" opacity="1.000000" stroke="none" 
	d="
M256.035034,463.786865 
	C255.736954,466.412567 255.826843,467.798706 258.768524,468.245453 
	C264.005127,469.040741 269.211334,470.307770 274.284119,471.856171 
	C286.767303,475.666443 295.134796,483.724426 296.994598,496.910156 
	C298.540588,507.871338 298.997528,518.986145 299.957947,530.280823 
	C271.794189,525.895020 242.682373,501.461060 236.185669,466.430145 
	C241.174408,466.686554 246.002197,466.934692 251.228333,467.203308 
	C251.228333,461.197693 251.184296,455.589417 251.243790,449.982208 
	C251.283463,446.243500 251.349503,446.244202 256.036163,446.470001 
	C256.036163,452.062714 256.036163,457.688721 256.035034,463.786865 
z"/>
<path fill="#1E426C" opacity="1.000000" stroke="none" 
	d="
M308.074677,445.915802 
	C319.604462,442.687653 329.762421,446.121246 333.958923,454.512665 
	C337.488190,461.569916 336.863831,468.494080 332.182373,474.710480 
	C327.213257,481.308838 320.194214,483.592651 312.241638,481.909607 
	C304.505859,480.272461 299.171448,475.471436 297.045319,467.716614 
	C294.611572,458.840027 298.696442,450.795380 308.074677,445.915802 
M330.424225,459.454376 
	C327.869690,452.520691 322.286499,448.689697 315.217865,449.020386 
	C309.089386,449.307129 303.433655,453.810333 302.052338,459.396027 
	C300.523834,465.577148 302.489044,470.549164 307.316803,474.417603 
	C311.828217,478.032501 318.840240,478.492340 323.777527,475.447754 
	C329.423157,471.966370 332.016052,466.947968 330.424225,459.454376 
z"/>
<path fill="#0F3A70" opacity="1.000000" stroke="none" 
	d="
M306.293182,511.030396 
	C305.509979,509.685669 305.200958,508.399994 304.771057,506.611481 
	C312.493439,506.611481 319.462219,506.471558 326.413300,506.758972 
	C327.482788,506.803162 328.470978,508.813171 329.496765,509.914001 
	C329.197693,510.305847 328.898651,510.697662 328.599609,511.089478 
	C321.322174,511.089478 314.044769,511.089478 306.293182,511.030396 
z"/>
<path fill="#FAFBF8" opacity="1.000000" stroke="none" 
	d="
M330.546875,459.839294 
	C332.016052,466.947968 329.423157,471.966370 323.777527,475.447754 
	C318.840240,478.492340 311.828217,478.032501 307.316803,474.417603 
	C302.489044,470.549164 300.523834,465.577148 302.052338,459.396027 
	C303.433655,453.810333 309.089386,449.307129 315.217865,449.020386 
	C322.286499,448.689697 327.869690,452.520691 330.546875,459.839294 
z"/>
</svg>